<svg width="92" height="40" viewBox="0 0 92 40" fill="none" xmlns="http://www.w3.org/2000/svg">
<rect x="0.5" y="0.5" width="91" height="39" rx="5.5" fill="#F7A01F"/>
<rect x="0.5" y="0.5" width="91" height="39" rx="5.5" stroke="#F7A01F"/>
<circle cx="20.0007" cy="19.9997" r="6.44" stroke="white" stroke-width="1.68"/>
<circle cx="19.9992" cy="20" r="2.8" fill="white"/>
<path d="M28.4815 11.2824L27.4842 15.0046L24.7594 12.2797L28.4815 11.2824Z" fill="white"/>
<path d="M11.5634 28.7626L12.5607 25.0404L15.2855 27.7652L11.5634 28.7626Z" fill="white"/>
<path d="M44.6719 17.4929C44.6188 17.0223 44.4001 16.6577 44.0156 16.3991C43.6312 16.1373 43.1473 16.0064 42.5639 16.0064C42.1463 16.0064 41.785 16.0727 41.4801 16.2053C41.1752 16.3345 40.9382 16.5135 40.7692 16.7422C40.6035 16.9676 40.5206 17.2244 40.5206 17.5128C40.5206 17.7547 40.5769 17.9635 40.6896 18.1392C40.8056 18.3149 40.9564 18.4624 41.142 18.5817C41.331 18.6977 41.5331 18.7955 41.7486 18.875C41.964 18.9512 42.1712 19.0142 42.37 19.0639L43.3643 19.3224C43.6892 19.402 44.0223 19.5097 44.3636 19.6456C44.705 19.7815 45.0215 19.9605 45.3132 20.1825C45.6049 20.4046 45.8402 20.6797 46.0192 21.0078C46.2015 21.3359 46.2926 21.7287 46.2926 22.1861C46.2926 22.7628 46.1435 23.2749 45.8452 23.7223C45.5502 24.1697 45.121 24.5227 44.5575 24.7812C43.9974 25.0398 43.3196 25.169 42.5241 25.169C41.7618 25.169 41.1023 25.0481 40.5455 24.8061C39.9886 24.5642 39.5528 24.2211 39.2379 23.777C38.9231 23.3295 38.7491 22.7992 38.7159 22.1861H40.2571C40.2869 22.554 40.4063 22.8606 40.6151 23.1058C40.8272 23.3478 41.0973 23.5284 41.4254 23.6477C41.7569 23.7637 42.1198 23.8217 42.5142 23.8217C42.9484 23.8217 43.3345 23.7538 43.6726 23.6179C44.014 23.4787 44.2824 23.2865 44.478 23.0412C44.6735 22.7926 44.7713 22.5026 44.7713 22.1712C44.7713 21.8696 44.6851 21.6226 44.5128 21.4304C44.3438 21.2382 44.1134 21.0791 43.8217 20.9531C43.5334 20.8272 43.2069 20.7161 42.8423 20.62L41.6392 20.2919C40.8239 20.0698 40.1776 19.7434 39.7003 19.3125C39.2263 18.8816 38.9893 18.3116 38.9893 17.6023C38.9893 17.0156 39.1484 16.5036 39.4666 16.0661C39.7848 15.6286 40.2157 15.2888 40.7592 15.0469C41.3028 14.8016 41.916 14.679 42.5987 14.679C43.2881 14.679 43.8963 14.8 44.4233 15.0419C44.9536 15.2839 45.3712 15.617 45.6761 16.0412C45.9811 16.4621 46.1402 16.946 46.1534 17.4929H44.6719ZM51.2257 25.1541C50.5098 25.1541 49.885 24.9901 49.3514 24.6619C48.8178 24.3338 48.4035 23.8748 48.1085 23.2848C47.8135 22.6948 47.666 22.0054 47.666 21.2166C47.666 20.4245 47.8135 19.7318 48.1085 19.1385C48.4035 18.5452 48.8178 18.0845 49.3514 17.7564C49.885 17.4283 50.5098 17.2642 51.2257 17.2642C51.9416 17.2642 52.5663 17.4283 53.1 17.7564C53.6336 18.0845 54.0479 18.5452 54.3429 19.1385C54.6378 19.7318 54.7853 20.4245 54.7853 21.2166C54.7853 22.0054 54.6378 22.6948 54.3429 23.2848C54.0479 23.8748 53.6336 24.3338 53.1 24.6619C52.5663 24.9901 51.9416 25.1541 51.2257 25.1541ZM51.2306 23.9062C51.6947 23.9062 52.0791 23.7836 52.3841 23.5384C52.689 23.2931 52.9144 22.9666 53.0602 22.5589C53.2093 22.1513 53.2839 21.7022 53.2839 21.2116C53.2839 20.7244 53.2093 20.277 53.0602 19.8693C52.9144 19.4583 52.689 19.1286 52.3841 18.88C52.0791 18.6314 51.6947 18.5071 51.2306 18.5071C50.7633 18.5071 50.3755 18.6314 50.0673 18.88C49.7624 19.1286 49.5353 19.4583 49.3862 19.8693C49.2404 20.277 49.1674 20.7244 49.1674 21.2116C49.1674 21.7022 49.2404 22.1513 49.3862 22.5589C49.5353 22.9666 49.7624 23.2931 50.0673 23.5384C50.3755 23.7836 50.7633 23.9062 51.2306 23.9062ZM61.282 21.8331V17.3636H62.7734V25H61.3118V23.6776H61.2322C61.0566 24.0852 60.7749 24.425 60.3871 24.6967C60.0026 24.9652 59.5237 25.0994 58.9503 25.0994C58.4598 25.0994 58.0256 24.9917 57.6477 24.7763C57.2732 24.5575 56.9782 24.2344 56.7628 23.8068C56.5507 23.3793 56.4446 22.8506 56.4446 22.2209V17.3636H57.9311V22.0419C57.9311 22.5623 58.0753 22.9766 58.3636 23.2848C58.652 23.593 59.0265 23.7472 59.4872 23.7472C59.7656 23.7472 60.0424 23.6776 60.3175 23.5384C60.5959 23.3991 60.8262 23.1887 61.0085 22.907C61.1941 22.6252 61.2853 22.2673 61.282 21.8331ZM64.7708 25V17.3636H66.2076V18.5767H66.2871C66.4263 18.1657 66.6716 17.8426 67.0229 17.6072C67.3775 17.3686 67.7786 17.2493 68.226 17.2493C68.3188 17.2493 68.4282 17.2526 68.5542 17.2592C68.6834 17.2659 68.7845 17.2741 68.8574 17.2841V18.706C68.7978 18.6894 68.6917 18.6712 68.5392 18.6513C68.3868 18.6281 68.2343 18.6165 68.0819 18.6165C67.7305 18.6165 67.4173 18.6911 67.1422 18.8402C66.8704 18.986 66.655 19.1899 66.4959 19.4517C66.3368 19.7102 66.2573 20.0052 66.2573 20.3366V25H64.7708ZM73.087 25.1541C72.3479 25.1541 71.7115 24.9867 71.1779 24.652C70.6476 24.3139 70.2399 23.8482 69.9549 23.255C69.6699 22.6617 69.5273 21.9822 69.5273 21.2166C69.5273 20.4411 69.6732 19.7566 69.9648 19.1634C70.2565 18.5668 70.6675 18.1011 71.1978 17.7663C71.7281 17.4316 72.3529 17.2642 73.0721 17.2642C73.6521 17.2642 74.1692 17.3719 74.6232 17.5874C75.0773 17.7995 75.4435 18.0978 75.7219 18.4822C76.0037 18.8667 76.171 19.3158 76.2241 19.8295H74.7773C74.6978 19.4716 74.5155 19.1634 74.2305 18.9048C73.9487 18.6463 73.5709 18.517 73.0969 18.517C72.6826 18.517 72.3197 18.6264 72.0082 18.8452C71.6999 19.0606 71.4596 19.3688 71.2873 19.7699C71.1149 20.1676 71.0288 20.6383 71.0288 21.1818C71.0288 21.7386 71.1133 22.2192 71.2823 22.6236C71.4513 23.0279 71.69 23.3411 71.9982 23.5632C72.3098 23.7853 72.676 23.8963 73.0969 23.8963C73.3787 23.8963 73.6339 23.8449 73.8626 23.7422C74.0946 23.6361 74.2885 23.4853 74.4442 23.2898C74.6033 23.0942 74.7144 22.8589 74.7773 22.5838H76.2241C76.171 23.0777 76.0103 23.5185 75.7418 23.9062C75.4734 24.294 75.1138 24.599 74.663 24.821C74.2156 25.0431 73.6902 25.1541 73.087 25.1541ZM81.1049 25.1541C80.3526 25.1541 79.7046 24.9934 79.161 24.6719C78.6208 24.3471 78.2032 23.8913 77.9082 23.3047C77.6165 22.7147 77.4707 22.0237 77.4707 21.2315C77.4707 20.4493 77.6165 19.7599 77.9082 19.1634C78.2032 18.5668 78.6142 18.1011 79.1412 17.7663C79.6715 17.4316 80.2913 17.2642 81.0005 17.2642C81.4314 17.2642 81.849 17.3355 82.2534 17.478C82.6577 17.6205 83.0207 17.8442 83.3422 18.1491C83.6636 18.4541 83.9172 18.8501 84.1028 19.3374C84.2884 19.8213 84.3812 20.4096 84.3812 21.1023V21.6293H78.3109V20.5156H82.9245C82.9245 20.1245 82.845 19.7782 82.6859 19.4766C82.5268 19.1716 82.3031 18.9313 82.0147 18.7557C81.7297 18.58 81.3949 18.4922 81.0105 18.4922C80.5929 18.4922 80.2283 18.5949 79.9167 18.8004C79.6085 19.0026 79.3699 19.2678 79.2008 19.5959C79.0351 19.9207 78.9522 20.2737 78.9522 20.6548V21.5249C78.9522 22.0353 79.0417 22.4695 79.2207 22.8274C79.403 23.1854 79.6565 23.4588 79.9814 23.6477C80.3062 23.8333 80.6857 23.9261 81.1199 23.9261C81.4016 23.9261 81.6584 23.8864 81.8904 23.8068C82.1225 23.724 82.323 23.6013 82.492 23.4389C82.661 23.2765 82.7903 23.076 82.8798 22.8374L84.2868 23.0909C84.1741 23.5052 83.9719 23.8681 83.6802 24.1797C83.3919 24.4879 83.0289 24.7282 82.5914 24.9006C82.1573 25.0696 81.6618 25.1541 81.1049 25.1541Z" fill="white"/>
</svg>
