<svg width="94" height="40" viewBox="0 0 94 40" fill="none" xmlns="http://www.w3.org/2000/svg">
<rect x="0.5" y="0.5" width="93" height="39" rx="5.5" fill="#07A260"/>
<rect x="0.5" y="0.5" width="93" height="39" rx="5.5" stroke="#07A260"/>
<circle cx="20.0007" cy="19.9997" r="6.44" stroke="white" stroke-width="1.68"/>
<circle cx="19.9992" cy="20" r="2.8" fill="white"/>
<path d="M38.6165 16.1406V14.8182H46.4964V16.1406H43.3196V25H41.7884V16.1406H38.6165ZM49.3017 25.169C48.8178 25.169 48.3803 25.0795 47.9892 24.9006C47.5981 24.7183 47.2882 24.4548 47.0595 24.1101C46.8341 23.7654 46.7214 23.3428 46.7214 22.8423C46.7214 22.4115 46.8043 22.0568 46.97 21.7784C47.1357 21.5 47.3594 21.2796 47.6412 21.1172C47.9229 20.9548 48.2377 20.8321 48.5858 20.7493C48.9338 20.6664 49.2884 20.6035 49.6497 20.5604C50.1071 20.5073 50.4783 20.4643 50.7633 20.4311C51.0484 20.3946 51.2555 20.3366 51.3848 20.2571C51.514 20.1776 51.5787 20.0483 51.5787 19.8693V19.8345C51.5787 19.4003 51.456 19.0639 51.2108 18.8253C50.9688 18.5866 50.6075 18.4673 50.127 18.4673C49.6265 18.4673 49.2321 18.5784 48.9437 18.8004C48.6587 19.0192 48.4615 19.2628 48.3521 19.5312L46.9551 19.2131C47.1208 18.7491 47.3627 18.3745 47.6809 18.0895C48.0024 17.8011 48.372 17.5923 48.7896 17.4631C49.2072 17.3305 49.6464 17.2642 50.1071 17.2642C50.412 17.2642 50.7351 17.3007 51.0765 17.3736C51.4212 17.4432 51.7427 17.5724 52.041 17.7614C52.3426 17.9503 52.5895 18.2204 52.7818 18.5717C52.974 18.9197 53.0701 19.3722 53.0701 19.929V25H51.6184V23.956H51.5588C51.4627 24.1482 51.3185 24.3371 51.1262 24.5227C50.934 24.7083 50.6871 24.8625 50.3855 24.9851C50.0839 25.1077 49.7226 25.169 49.3017 25.169ZM49.6248 23.9759C50.0358 23.9759 50.3871 23.8946 50.6788 23.7322C50.9738 23.5698 51.1975 23.3577 51.35 23.0959C51.5057 22.8307 51.5836 22.5473 51.5836 22.2457V21.2614C51.5306 21.3144 51.4279 21.3641 51.2754 21.4105C51.1262 21.4536 50.9556 21.4917 50.7633 21.5249C50.5711 21.5547 50.3838 21.5829 50.2015 21.6094C50.0192 21.6326 49.8668 21.6525 49.7441 21.669C49.4558 21.7055 49.1923 21.7668 48.9537 21.853C48.7183 21.9392 48.5294 22.0634 48.3869 22.2259C48.2477 22.3849 48.1781 22.5971 48.1781 22.8622C48.1781 23.2301 48.314 23.5085 48.5858 23.6974C48.8575 23.883 49.2039 23.9759 49.6248 23.9759ZM55.0501 25V17.3636H56.4869V18.5767H56.5664C56.7056 18.1657 56.9509 17.8426 57.3022 17.6072C57.6568 17.3686 58.0579 17.2493 58.5053 17.2493C58.5981 17.2493 58.7075 17.2526 58.8335 17.2592C58.9627 17.2659 59.0638 17.2741 59.1367 17.2841V18.706C59.0771 18.6894 58.971 18.6712 58.8185 18.6513C58.6661 18.6281 58.5136 18.6165 58.3612 18.6165C58.0098 18.6165 57.6966 18.6911 57.4215 18.8402C57.1497 18.986 56.9343 19.1899 56.7752 19.4517C56.6161 19.7102 56.5366 20.0052 56.5366 20.3366V25H55.0501ZM63.3514 28.0227C62.7449 28.0227 62.2228 27.9432 61.7853 27.7841C61.3511 27.625 60.9965 27.4145 60.7214 27.1527C60.4463 26.8909 60.2408 26.6042 60.1049 26.2926L61.3826 25.7656C61.4721 25.9115 61.5914 26.0656 61.7406 26.228C61.8931 26.3937 62.0985 26.5346 62.3571 26.6506C62.6189 26.7666 62.9553 26.8246 63.3663 26.8246C63.9297 26.8246 64.3954 26.687 64.7633 26.4119C65.1312 26.1402 65.3152 25.706 65.3152 25.1094V23.608H65.2207C65.1312 23.7704 65.002 23.951 64.8329 24.1499C64.6672 24.3487 64.4385 24.5211 64.1468 24.6669C63.8552 24.8127 63.4757 24.8857 63.0083 24.8857C62.4051 24.8857 61.8616 24.7448 61.3777 24.4631C60.8971 24.178 60.5159 23.7588 60.2342 23.2053C59.9558 22.6484 59.8166 21.964 59.8166 21.152C59.8166 20.34 59.9541 19.6439 60.2292 19.0639C60.5076 18.4839 60.8888 18.0398 61.3727 17.7315C61.8566 17.42 62.4051 17.2642 63.0183 17.2642C63.4922 17.2642 63.8751 17.3438 64.1667 17.5028C64.4584 17.6586 64.6854 17.8409 64.8478 18.0497C65.0136 18.2585 65.1412 18.4425 65.2306 18.6016H65.34V17.3636H66.7967V25.169C66.7967 25.8253 66.6442 26.3639 66.3393 26.7848C66.0344 27.2057 65.6217 27.5173 65.1014 27.7195C64.5843 27.9216 64.001 28.0227 63.3514 28.0227ZM63.3365 23.6527C63.764 23.6527 64.1253 23.5533 64.4203 23.3544C64.7186 23.1522 64.944 22.8639 65.0964 22.4893C65.2522 22.1115 65.3301 21.6591 65.3301 21.1321C65.3301 20.6184 65.2538 20.166 65.1014 19.7749C64.9489 19.3838 64.7252 19.0788 64.4302 18.8601C64.1352 18.638 63.7707 18.527 63.3365 18.527C62.889 18.527 62.5162 18.643 62.2179 18.875C61.9196 19.1037 61.6942 19.4152 61.5417 19.8097C61.3926 20.2041 61.318 20.6449 61.318 21.1321C61.318 21.6326 61.3942 22.0717 61.5467 22.4496C61.6992 22.8274 61.9245 23.1224 62.2228 23.3345C62.5244 23.5466 62.8957 23.6527 63.3365 23.6527ZM72.0815 25.1541C71.3291 25.1541 70.6812 24.9934 70.1376 24.6719C69.5974 24.3471 69.1797 23.8913 68.8848 23.3047C68.5931 22.7147 68.4473 22.0237 68.4473 21.2315C68.4473 20.4493 68.5931 19.7599 68.8848 19.1634C69.1797 18.5668 69.5907 18.1011 70.1177 17.7663C70.648 17.4316 71.2678 17.2642 71.9771 17.2642C72.408 17.2642 72.8256 17.3355 73.2299 17.478C73.6343 17.6205 73.9972 17.8442 74.3187 18.1491C74.6402 18.4541 74.8938 18.8501 75.0794 19.3374C75.265 19.8213 75.3578 20.4096 75.3578 21.1023V21.6293H69.2875V20.5156H73.9011C73.9011 20.1245 73.8216 19.7782 73.6625 19.4766C73.5034 19.1716 73.2797 18.9313 72.9913 18.7557C72.7063 18.58 72.3715 18.4922 71.987 18.4922C71.5694 18.4922 71.2048 18.5949 70.8933 18.8004C70.585 19.0026 70.3464 19.2678 70.1774 19.5959C70.0117 19.9207 69.9288 20.2737 69.9288 20.6548V21.5249C69.9288 22.0353 70.0183 22.4695 70.1973 22.8274C70.3796 23.1854 70.6331 23.4588 70.9579 23.6477C71.2827 23.8333 71.6622 23.9261 72.0964 23.9261C72.3781 23.9261 72.635 23.8864 72.867 23.8068C73.099 23.724 73.2995 23.6013 73.4686 23.4389C73.6376 23.2765 73.7669 23.076 73.8564 22.8374L75.2633 23.0909C75.1506 23.5052 74.9484 23.8681 74.6568 24.1797C74.3684 24.4879 74.0055 24.7282 73.568 24.9006C73.1338 25.0696 72.6383 25.1541 72.0815 25.1541ZM80.5717 17.3636V18.5568H76.4006V17.3636H80.5717ZM77.5192 15.5341H79.0057V22.7578C79.0057 23.0462 79.0488 23.2633 79.1349 23.4091C79.2211 23.5516 79.3321 23.6494 79.468 23.7024C79.6072 23.7521 79.758 23.777 79.9205 23.777C80.0398 23.777 80.1442 23.7687 80.2337 23.7521C80.3232 23.7356 80.3928 23.7223 80.4425 23.7124L80.7109 24.9403C80.6248 24.9735 80.5021 25.0066 80.343 25.0398C80.1839 25.0762 79.9851 25.0961 79.7464 25.0994C79.3554 25.1061 78.9908 25.0365 78.6527 24.8906C78.3146 24.7448 78.0412 24.5194 77.8324 24.2145C77.6236 23.9096 77.5192 23.5268 77.5192 23.0661V15.5341Z" fill="white"/>
</svg>
