<svg width="79" height="40" viewBox="0 0 79 40" fill="none" xmlns="http://www.w3.org/2000/svg">
<rect x="0.5" y="0.5" width="78" height="39" rx="5.5" fill="#FF7396"/>
<rect x="0.5" y="0.5" width="78" height="39" rx="5.5" stroke="#FF7396"/>
<path d="M30.7068 14.8729C30.4571 14.5295 29.9889 14.4047 29.6143 14.6544C29.2397 14.9041 29.1461 15.3724 29.3958 15.7469L31.7057 19.243L29.1148 19.2743C29.0212 19.243 28.9588 19.2118 28.8651 19.2118H28.0847C20.2497 19.2118 12.8829 16.1527 7.32664 10.5964C7.01449 10.2843 6.51505 10.2843 6.23411 10.5964C5.92196 10.9086 5.92196 11.408 6.23411 11.689C10.4169 15.8718 15.5987 18.7124 21.2486 19.9922C15.5987 21.272 10.4169 24.1126 6.23411 28.3266C5.92196 28.6388 5.92196 29.1382 6.23411 29.4192C6.39019 29.5753 6.57748 29.6377 6.79599 29.6377C7.01449 29.6377 7.20178 29.5753 7.35786 29.4192C12.9142 23.8629 20.2809 20.8038 28.116 20.8038L31.7369 20.7726L29.427 24.2375C29.1773 24.5808 29.2709 25.0803 29.6455 25.33C29.7704 25.4236 29.9264 25.4549 30.0825 25.4549C30.3322 25.4549 30.5819 25.33 30.738 25.1115L33.8595 20.4292C34.0468 20.1795 34.0468 19.8361 33.8595 19.5552L30.7068 14.8729Z" fill="white" stroke="white" stroke-width="0.5"/>
<path d="M43.076 14.8182H44.6072V22.0369C44.6072 22.6899 44.478 23.2483 44.2195 23.7124C43.9643 24.1764 43.6046 24.531 43.1406 24.7763C42.6766 25.0182 42.133 25.1392 41.5099 25.1392C40.9366 25.1392 40.4212 25.0348 39.9638 24.826C39.5097 24.6172 39.1501 24.3139 38.8849 23.9162C38.6231 23.5152 38.4922 23.0279 38.4922 22.4545H40.0185C40.0185 22.7363 40.0831 22.9799 40.2124 23.1854C40.3449 23.3909 40.5256 23.5516 40.7543 23.6676C40.9863 23.7803 41.2514 23.8366 41.5497 23.8366C41.8745 23.8366 42.1496 23.7687 42.375 23.6328C42.6037 23.4936 42.7777 23.2898 42.897 23.0213C43.0163 22.7528 43.076 22.4247 43.076 22.0369V14.8182ZM49.9405 25.1541C49.2246 25.1541 48.5998 24.9901 48.0662 24.6619C47.5326 24.3338 47.1183 23.8748 46.8233 23.2848C46.5283 22.6948 46.3809 22.0054 46.3809 21.2166C46.3809 20.4245 46.5283 19.7318 46.8233 19.1385C47.1183 18.5452 47.5326 18.0845 48.0662 17.7564C48.5998 17.4283 49.2246 17.2642 49.9405 17.2642C50.6564 17.2642 51.2812 17.4283 51.8148 17.7564C52.3484 18.0845 52.7627 18.5452 53.0577 19.1385C53.3527 19.7318 53.5002 20.4245 53.5002 21.2166C53.5002 22.0054 53.3527 22.6948 53.0577 23.2848C52.7627 23.8748 52.3484 24.3338 51.8148 24.6619C51.2812 24.9901 50.6564 25.1541 49.9405 25.1541ZM49.9455 23.9062C50.4095 23.9062 50.794 23.7836 51.0989 23.5384C51.4038 23.2931 51.6292 22.9666 51.775 22.5589C51.9242 22.1513 51.9988 21.7022 51.9988 21.2116C51.9988 20.7244 51.9242 20.277 51.775 19.8693C51.6292 19.4583 51.4038 19.1286 51.0989 18.88C50.794 18.6314 50.4095 18.5071 49.9455 18.5071C49.4782 18.5071 49.0904 18.6314 48.7821 18.88C48.4772 19.1286 48.2502 19.4583 48.101 19.8693C47.9552 20.277 47.8823 20.7244 47.8823 21.2116C47.8823 21.7022 47.9552 22.1513 48.101 22.5589C48.2502 22.9666 48.4772 23.2931 48.7821 23.5384C49.0904 23.7836 49.4782 23.9062 49.9455 23.9062ZM55.1594 25V17.3636H56.646V25H55.1594ZM55.9102 16.1854C55.6516 16.1854 55.4296 16.0992 55.244 15.9268C55.0617 15.7512 54.9705 15.5424 54.9705 15.3004C54.9705 15.0552 55.0617 14.8464 55.244 14.674C55.4296 14.4983 55.6516 14.4105 55.9102 14.4105C56.1687 14.4105 56.3891 14.4983 56.5714 14.674C56.757 14.8464 56.8498 15.0552 56.8498 15.3004C56.8498 15.5424 56.757 15.7512 56.5714 15.9268C56.3891 16.0992 56.1687 16.1854 55.9102 16.1854ZM60.1323 20.4659V25H58.6458V17.3636H60.0726V18.6065H60.1671C60.3427 18.2022 60.6178 17.8774 60.9924 17.6321C61.3702 17.3868 61.8458 17.2642 62.4192 17.2642C62.9396 17.2642 63.3953 17.3736 63.7864 17.5923C64.1775 17.8078 64.4808 18.1293 64.6962 18.5568C64.9116 18.9844 65.0194 19.513 65.0194 20.1428V25H63.5328V20.3217C63.5328 19.7682 63.3887 19.3357 63.1003 19.0241C62.812 18.7093 62.4159 18.5518 61.9121 18.5518C61.5674 18.5518 61.2608 18.6264 60.9924 18.7756C60.7272 18.9247 60.5167 19.1435 60.361 19.4318C60.2085 19.7169 60.1323 20.0616 60.1323 20.4659Z" fill="white"/>
</svg>
