<svg width="95" height="40" viewBox="0 0 95 40" fill="none" xmlns="http://www.w3.org/2000/svg">
<rect x="0.5" y="0.5" width="94" height="39" rx="5.5" fill="#804FBF"/>
<rect x="0.5" y="0.5" width="94" height="39" rx="5.5" stroke="#804FBF"/>
<circle cx="20.0001" cy="20" r="3.22" stroke="white" stroke-width="1.4"/>
<circle cx="19.9996" cy="19.9996" r="0.7" stroke="white" stroke-width="1.4"/>
<path d="M24.7598 15.2401L28.9598 11.0401" stroke="white" stroke-width="1.4" stroke-linecap="round" stroke-linejoin="round"/>
<path d="M15.2402 15.2405L13.5602 13.5605" stroke="white" stroke-width="1.4" stroke-linecap="round" stroke-linejoin="round"/>
<path d="M26.7188 26.1605L25.0387 24.4805" stroke="white" stroke-width="1.4" stroke-linecap="round" stroke-linejoin="round"/>
<path d="M15.2402 24.7473L11.0402 28.9473" stroke="white" stroke-width="1.4" stroke-linecap="round" stroke-linejoin="round"/>
<path d="M26.6104 13.3773L25.5144 17.4676L22.5201 14.4733L26.6104 13.3773Z" fill="white"/>
<path d="M13.3896 26.6104L14.4856 22.5201L17.4799 25.5144L13.3896 26.6104Z" fill="white"/>
<path d="M39.1186 25V14.8182H42.7479C43.5367 14.8182 44.1913 14.9541 44.7116 15.2259C45.2353 15.4976 45.6264 15.8738 45.8849 16.3544C46.1435 16.8317 46.2727 17.3835 46.2727 18.0099C46.2727 18.633 46.1418 19.1816 45.88 19.6555C45.6214 20.1262 45.2304 20.4924 44.7067 20.7543C44.1863 21.0161 43.5317 21.147 42.7429 21.147H39.9936V19.8246H42.6037C43.1009 19.8246 43.5052 19.7533 43.8168 19.6108C44.1316 19.4683 44.362 19.2611 44.5078 18.9893C44.6536 18.7176 44.7266 18.3911 44.7266 18.0099C44.7266 17.6255 44.652 17.2924 44.5028 17.0107C44.357 16.7289 44.1267 16.5135 43.8118 16.3643C43.5002 16.2119 43.0909 16.1357 42.5838 16.1357H40.6548V25H39.1186ZM44.1449 20.4062L46.6605 25H44.9105L42.4446 20.4062H44.1449ZM51.1436 25.1541C50.4277 25.1541 49.803 24.9901 49.2694 24.6619C48.7357 24.3338 48.3214 23.8748 48.0265 23.2848C47.7315 22.6948 47.584 22.0054 47.584 21.2166C47.584 20.4245 47.7315 19.7318 48.0265 19.1385C48.3214 18.5452 48.7357 18.0845 49.2694 17.7564C49.803 17.4283 50.4277 17.2642 51.1436 17.2642C51.8596 17.2642 52.4843 17.4283 53.0179 17.7564C53.5516 18.0845 53.9658 18.5452 54.2608 19.1385C54.5558 19.7318 54.7033 20.4245 54.7033 21.2166C54.7033 22.0054 54.5558 22.6948 54.2608 23.2848C53.9658 23.8748 53.5516 24.3338 53.0179 24.6619C52.4843 24.9901 51.8596 25.1541 51.1436 25.1541ZM51.1486 23.9062C51.6126 23.9062 51.9971 23.7836 52.302 23.5384C52.6069 23.2931 52.8323 22.9666 52.9782 22.5589C53.1273 22.1513 53.2019 21.7022 53.2019 21.2116C53.2019 20.7244 53.1273 20.277 52.9782 19.8693C52.8323 19.4583 52.6069 19.1286 52.302 18.88C51.9971 18.6314 51.6126 18.5071 51.1486 18.5071C50.6813 18.5071 50.2935 18.6314 49.9853 18.88C49.6803 19.1286 49.4533 19.4583 49.3042 19.8693C49.1583 20.277 49.0854 20.7244 49.0854 21.2116C49.0854 21.7022 49.1583 22.1513 49.3042 22.5589C49.4533 22.9666 49.6803 23.2931 49.9853 23.5384C50.2935 23.7836 50.6813 23.9062 51.1486 23.9062ZM61.1999 21.8331V17.3636H62.6914V25H61.2298V23.6776H61.1502C60.9746 24.0852 60.6928 24.425 60.305 24.6967C59.9206 24.9652 59.4416 25.0994 58.8683 25.0994C58.3777 25.0994 57.9435 24.9917 57.5657 24.7763C57.1912 24.5575 56.8962 24.2344 56.6808 23.8068C56.4686 23.3793 56.3626 22.8506 56.3626 22.2209V17.3636H57.8491V22.0419C57.8491 22.5623 57.9933 22.9766 58.2816 23.2848C58.57 23.593 58.9445 23.7472 59.4052 23.7472C59.6836 23.7472 59.9603 23.6776 60.2354 23.5384C60.5138 23.3991 60.7442 23.1887 60.9265 22.907C61.1121 22.6252 61.2032 22.2673 61.1999 21.8331ZM68.2534 17.3636V18.5568H64.0822V17.3636H68.2534ZM65.2008 15.5341H66.6873V22.7578C66.6873 23.0462 66.7304 23.2633 66.8166 23.4091C66.9028 23.5516 67.0138 23.6494 67.1497 23.7024C67.2889 23.7521 67.4397 23.777 67.6021 23.777C67.7214 23.777 67.8258 23.7687 67.9153 23.7521C68.0048 23.7356 68.0744 23.7223 68.1241 23.7124L68.3926 24.9403C68.3064 24.9735 68.1838 25.0066 68.0247 25.0398C67.8656 25.0762 67.6667 25.0961 67.4281 25.0994C67.037 25.1061 66.6724 25.0365 66.3343 24.8906C65.9963 24.7448 65.7228 24.5194 65.514 24.2145C65.3052 23.9096 65.2008 23.5268 65.2008 23.0661V15.5341ZM73.1069 25.1541C72.3545 25.1541 71.7066 24.9934 71.163 24.6719C70.6228 24.3471 70.2051 23.8913 69.9102 23.3047C69.6185 22.7147 69.4727 22.0237 69.4727 21.2315C69.4727 20.4493 69.6185 19.7599 69.9102 19.1634C70.2051 18.5668 70.6161 18.1011 71.1431 17.7663C71.6734 17.4316 72.2932 17.2642 73.0025 17.2642C73.4334 17.2642 73.851 17.3355 74.2553 17.478C74.6597 17.6205 75.0226 17.8442 75.3441 18.1491C75.6656 18.4541 75.9192 18.8501 76.1048 19.3374C76.2904 19.8213 76.3832 20.4096 76.3832 21.1023V21.6293H70.3129V20.5156H74.9265C74.9265 20.1245 74.8469 19.7782 74.6879 19.4766C74.5288 19.1716 74.305 18.9313 74.0167 18.7557C73.7317 18.58 73.3969 18.4922 73.0124 18.4922C72.5948 18.4922 72.2302 18.5949 71.9187 18.8004C71.6104 19.0026 71.3718 19.2678 71.2028 19.5959C71.0371 19.9207 70.9542 20.2737 70.9542 20.6548V21.5249C70.9542 22.0353 71.0437 22.4695 71.2227 22.8274C71.4049 23.1854 71.6585 23.4588 71.9833 23.6477C72.3081 23.8333 72.6876 23.9261 73.1218 23.9261C73.4035 23.9261 73.6604 23.8864 73.8924 23.8068C74.1244 23.724 74.3249 23.6013 74.494 23.4389C74.663 23.2765 74.7923 23.076 74.8817 22.8374L76.2887 23.0909C76.176 23.5052 75.9738 23.8681 75.6822 24.1797C75.3938 24.4879 75.0309 24.7282 74.5934 24.9006C74.1592 25.0696 73.6637 25.1541 73.1069 25.1541ZM78.0325 25V17.3636H79.4693V18.5767H79.5488C79.688 18.1657 79.9333 17.8426 80.2846 17.6072C80.6393 17.3686 81.0403 17.2493 81.4877 17.2493C81.5806 17.2493 81.6899 17.2526 81.8159 17.2592C81.9451 17.2659 82.0462 17.2741 82.1191 17.2841V18.706C82.0595 18.6894 81.9534 18.6712 81.801 18.6513C81.6485 18.6281 81.496 18.6165 81.3436 18.6165C80.9922 18.6165 80.679 18.6911 80.4039 18.8402C80.1322 18.986 79.9167 19.1899 79.7576 19.4517C79.5985 19.7102 79.519 20.0052 79.519 20.3366V25H78.0325Z" fill="white"/>
</svg>
