<svg width="118" height="40" viewBox="0 0 118 40" fill="none" xmlns="http://www.w3.org/2000/svg">
<rect x="0.5" y="0.5" width="117" height="39" rx="5.5" fill="#06BABD"/>
<rect x="0.5" y="0.5" width="117" height="39" rx="5.5" stroke="#06BABD"/>
<path d="M28.6126 15.6552C28.6124 15.6509 28.6124 15.6466 28.6126 15.6423C28.6087 15.6278 28.6038 15.6136 28.5982 15.5997C28.5917 15.5843 28.5845 15.5692 28.5764 15.5546L28.5708 15.5457C28.5643 15.5345 28.557 15.5238 28.5491 15.5135L28.5418 15.5031C28.5317 15.4905 28.521 15.4784 28.5096 15.4668C28.4986 15.456 28.4871 15.4458 28.475 15.4363L28.4637 15.4282C28.4532 15.4202 28.4422 15.413 28.4307 15.4065L28.4243 15.4025L21.2471 11.3381C21.1859 11.3028 21.1165 11.2842 21.0458 11.2842C20.9752 11.2842 20.9058 11.3028 20.8446 11.3381L13.6738 15.3984H13.6674H13.6625C13.6503 15.4055 13.6384 15.4132 13.6271 15.4218L13.6175 15.429C13.5917 15.4492 13.5684 15.4724 13.5482 15.4982L13.541 15.5071L13.5185 15.5409L13.5136 15.549C13.5056 15.5636 13.4983 15.5786 13.4919 15.594C13.4854 15.6085 13.4814 15.623 13.4766 15.6375C13.4769 15.6418 13.4769 15.6461 13.4766 15.6504L13.4693 15.6882C13.4697 15.6922 13.4697 15.6963 13.4693 15.7003C13.4686 15.7158 13.4686 15.7314 13.4693 15.747V23.8531C13.4693 23.9232 13.4873 23.9922 13.5217 24.0533C13.5561 24.1143 13.6058 24.1655 13.6658 24.2017L20.843 28.5486C20.9065 28.5878 20.9797 28.6085 21.0543 28.6085C21.1289 28.6085 21.2021 28.5878 21.2656 28.5486L28.4428 24.2017C28.5028 24.1655 28.5524 24.1143 28.5869 24.0533C28.6213 23.9922 28.6393 23.9232 28.6392 23.8531V15.7518C28.64 15.7363 28.64 15.7207 28.6392 15.7051C28.6396 15.7011 28.6396 15.6971 28.6392 15.693C28.6314 15.6797 28.6225 15.6671 28.6126 15.6552ZM21.0402 12.156L27.3738 15.743L21.0402 19.1585L14.7058 15.743L21.0402 12.156ZM14.2703 16.4352L20.6297 19.8653V27.4804L14.2703 23.6285V16.4352ZM21.4483 27.4804V19.8653L27.8077 16.4352V23.6285L21.4483 27.4804Z" fill="white" stroke="white" stroke-width="0.5"/>
<path d="M15.5951 31.9155C13.3007 30.8665 11.3554 29.1812 9.99015 27.0596C8.62492 24.938 7.89711 22.4692 7.89309 19.9463C7.89309 19.6315 7.90597 19.316 7.92771 19.002L9.10217 20.5685C9.1405 20.6188 9.18996 20.6595 9.24666 20.6874C9.30337 20.7154 9.36578 20.7298 9.429 20.7295C9.51608 20.7295 9.60082 20.7013 9.67049 20.649C9.75672 20.5839 9.81362 20.4873 9.82871 20.3803C9.8438 20.2733 9.81585 20.1647 9.75099 20.0783L7.89953 17.6062C7.86355 17.5582 7.81742 17.5188 7.76443 17.4907C7.71144 17.4626 7.6529 17.4466 7.593 17.4437C7.5331 17.4409 7.47331 17.4513 7.41789 17.4742C7.36248 17.4972 7.31282 17.5321 7.27245 17.5764L5.10625 19.9583C5.03345 20.0383 4.99539 20.1439 5.00045 20.2519C5.0055 20.3599 5.05326 20.4615 5.13322 20.5343C5.21317 20.6071 5.31877 20.6452 5.42678 20.6401C5.5348 20.6351 5.63638 20.5873 5.70918 20.5073L7.11548 18.965C7.09294 19.291 7.08087 19.6195 7.08087 19.9463C7.08463 22.6252 7.85699 25.2468 9.30627 27.4998C10.7555 29.7528 12.8209 31.5427 15.2571 32.6569C15.3554 32.7018 15.4675 32.7057 15.5687 32.6679C15.6699 32.6301 15.752 32.5536 15.7968 32.4553C15.8416 32.357 15.8456 32.2449 15.8078 32.1436C15.7699 32.0424 15.6935 31.9604 15.5951 31.9155Z" fill="white" stroke="white" stroke-width="0.5"/>
<path d="M34.9996 19.9457C34.9998 19.0756 34.9189 18.2073 34.7581 17.3521C34.7483 17.2995 34.7282 17.2494 34.699 17.2045C34.6698 17.1597 34.632 17.1211 34.5879 17.0908C34.5438 17.0606 34.4941 17.0393 34.4417 17.0283C34.3894 17.0173 34.3354 17.0166 34.2828 17.0265C34.2302 17.0363 34.1801 17.0564 34.1352 17.0856C34.0904 17.1148 34.0518 17.1526 34.0215 17.1967C33.9913 17.2408 33.9701 17.2905 33.959 17.3429C33.948 17.3952 33.9473 17.4492 33.9572 17.5018C34.108 18.3077 34.1837 19.1258 34.1834 19.9457C34.1834 27.0497 28.5187 32.8544 21.4695 33.083L23.1173 31.4908C23.1872 31.4144 23.2254 31.3143 23.2241 31.2107C23.2229 31.1072 23.1822 31.0081 23.1105 30.9334C23.0387 30.8588 22.9412 30.8143 22.8378 30.809C22.7344 30.8036 22.6329 30.8379 22.5538 30.9047L20.1437 33.2344C20.1028 33.274 20.0706 33.3218 20.0493 33.3746C20.0279 33.4274 20.0179 33.4841 20.0198 33.5411C20.0217 33.598 20.0355 33.654 20.0603 33.7052C20.0851 33.7565 20.1204 33.8021 20.1638 33.8389L22.6247 35.919C22.6655 35.9536 22.7128 35.9798 22.7639 35.9961C22.8149 36.0125 22.8687 36.0186 22.9221 36.0141C22.9754 36.0096 23.0274 35.9946 23.075 35.97C23.1226 35.9454 23.1649 35.9116 23.1994 35.8707C23.2692 35.788 23.3032 35.6811 23.2942 35.5733C23.2851 35.4655 23.2337 35.3658 23.1511 35.2959L21.5001 33.9009C28.9856 33.6537 34.9996 27.4892 34.9996 19.9457Z" fill="white" stroke="white" stroke-width="0.5"/>
<path d="M9.05233 13.6012C9.14621 13.6544 9.25736 13.6683 9.36146 13.6398C9.46555 13.6113 9.55411 13.5427 9.60776 13.449C10.7589 11.4324 12.4221 9.75546 14.4293 8.5879C16.4365 7.42034 18.7164 6.80355 21.0385 6.79991C22.9077 6.79371 24.7565 7.18919 26.4596 7.95956C28.1627 8.72994 29.6804 9.85723 30.91 11.2651L28.7188 10.7282C28.6669 10.7155 28.6129 10.7131 28.56 10.7212C28.5071 10.7293 28.4564 10.7478 28.4106 10.7755C28.3649 10.8032 28.3251 10.8397 28.2934 10.8828C28.2617 10.926 28.2389 10.9749 28.2262 11.0269C28.2134 11.0788 28.211 11.1328 28.2192 11.1857C28.2273 11.2385 28.2457 11.2893 28.2735 11.335C28.3012 11.3808 28.3377 11.4206 28.3808 11.4523C28.4239 11.4839 28.4729 11.5068 28.5248 11.5195L31.7922 12.3205C31.8241 12.3284 31.8568 12.3325 31.8896 12.3325C31.993 12.3317 32.0921 12.2915 32.1668 12.2202C32.2416 12.1488 32.2864 12.0517 32.2921 11.9486L32.4789 8.72864C32.4704 8.63086 32.427 8.5394 32.3566 8.47103C32.2861 8.40266 32.1934 8.36196 32.0955 8.35638C31.9975 8.35081 31.9007 8.38074 31.823 8.44068C31.7453 8.50062 31.6918 8.58656 31.6723 8.68276L31.5523 10.7548C30.246 9.25095 28.6308 8.0464 26.8169 7.2232C25.003 6.39999 23.0329 5.97749 21.0409 5.98446C18.575 5.988 16.1537 6.6428 14.0221 7.88262C11.8905 9.12243 10.1241 10.9033 8.90179 13.0449C8.87514 13.0913 8.85788 13.1425 8.85102 13.1956C8.84416 13.2487 8.84782 13.3026 8.8618 13.3543C8.87578 13.4059 8.8998 13.4543 8.93249 13.4967C8.96518 13.5391 9.0059 13.5746 9.05233 13.6012Z" fill="white" stroke="white" stroke-width="0.5"/>
<path d="M40.6165 16.1406V14.8182H48.4964V16.1406H45.3196V25H43.7884V16.1406H40.6165ZM49.3255 25V17.3636H50.7623V18.5767H50.8418C50.981 18.1657 51.2263 17.8426 51.5776 17.6072C51.9322 17.3686 52.3333 17.2493 52.7807 17.2493C52.8735 17.2493 52.9829 17.2526 53.1088 17.2592C53.2381 17.2659 53.3392 17.2741 53.4121 17.2841V18.706C53.3525 18.6894 53.2464 18.6712 53.0939 18.6513C52.9415 18.6281 52.789 18.6165 52.6365 18.6165C52.2852 18.6165 51.972 18.6911 51.6969 18.8402C51.4251 18.986 51.2097 19.1899 51.0506 19.4517C50.8915 19.7102 50.812 20.0052 50.812 20.3366V25H49.3255ZM56.8525 25.169C56.3685 25.169 55.931 25.0795 55.54 24.9006C55.1489 24.7183 54.839 24.4548 54.6103 24.1101C54.3849 23.7654 54.2722 23.3428 54.2722 22.8423C54.2722 22.4115 54.3551 22.0568 54.5208 21.7784C54.6865 21.5 54.9102 21.2796 55.1919 21.1172C55.4737 20.9548 55.7885 20.8321 56.1365 20.7493C56.4846 20.6664 56.8392 20.6035 57.2005 20.5604C57.6578 20.5073 58.0291 20.4643 58.3141 20.4311C58.5991 20.3946 58.8063 20.3366 58.9355 20.2571C59.0648 20.1776 59.1294 20.0483 59.1294 19.8693V19.8345C59.1294 19.4003 59.0068 19.0639 58.7615 18.8253C58.5196 18.5866 58.1583 18.4673 57.6777 18.4673C57.1773 18.4673 56.7828 18.5784 56.4945 18.8004C56.2095 19.0192 56.0123 19.2628 55.9029 19.5312L54.5059 19.2131C54.6716 18.7491 54.9135 18.3745 55.2317 18.0895C55.5532 17.8011 55.9228 17.5923 56.3404 17.4631C56.758 17.3305 57.1971 17.2642 57.6578 17.2642C57.9628 17.2642 58.2859 17.3007 58.6273 17.3736C58.972 17.4432 59.2935 17.5724 59.5918 17.7614C59.8934 17.9503 60.1403 18.2204 60.3326 18.5717C60.5248 18.9197 60.6209 19.3722 60.6209 19.929V25H59.1692V23.956H59.1096C59.0134 24.1482 58.8693 24.3371 58.677 24.5227C58.4848 24.7083 58.2379 24.8625 57.9363 24.9851C57.6346 25.1077 57.2734 25.169 56.8525 25.169ZM57.1756 23.9759C57.5866 23.9759 57.9379 23.8946 58.2296 23.7322C58.5246 23.5698 58.7483 23.3577 58.9007 23.0959C59.0565 22.8307 59.1344 22.5473 59.1344 22.2457V21.2614C59.0814 21.3144 58.9786 21.3641 58.8262 21.4105C58.677 21.4536 58.5063 21.4917 58.3141 21.5249C58.1219 21.5547 57.9346 21.5829 57.7523 21.6094C57.57 21.6326 57.4176 21.6525 57.2949 21.669C57.0066 21.7055 56.7431 21.7668 56.5044 21.853C56.2691 21.9392 56.0802 22.0634 55.9377 22.2259C55.7985 22.3849 55.7289 22.5971 55.7289 22.8622C55.7289 23.2301 55.8648 23.5085 56.1365 23.6974C56.4083 23.883 56.7547 23.9759 57.1756 23.9759ZM64.0874 20.4659V25H62.6009V17.3636H64.0277V18.6065H64.1222C64.2978 18.2022 64.5729 17.8774 64.9474 17.6321C65.3253 17.3868 65.8009 17.2642 66.3743 17.2642C66.8946 17.2642 67.3504 17.3736 67.7415 17.5923C68.1326 17.8078 68.4358 18.1293 68.6513 18.5568C68.8667 18.9844 68.9744 19.513 68.9744 20.1428V25H67.4879V20.3217C67.4879 19.7682 67.3438 19.3357 67.0554 19.0241C66.767 18.7093 66.371 18.5518 65.8672 18.5518C65.5225 18.5518 65.2159 18.6264 64.9474 18.7756C64.6823 18.9247 64.4718 19.1435 64.3161 19.4318C64.1636 19.7169 64.0874 20.0616 64.0874 20.4659ZM76.6903 19.228L75.343 19.4666C75.2867 19.2943 75.1972 19.1302 75.0746 18.9744C74.9553 18.8187 74.7929 18.6911 74.5874 18.5916C74.3819 18.4922 74.125 18.4425 73.8168 18.4425C73.3958 18.4425 73.0445 18.5369 72.7628 18.7259C72.4811 18.9115 72.3402 19.1518 72.3402 19.4467C72.3402 19.7019 72.4347 19.9074 72.6236 20.0632C72.8125 20.219 73.1174 20.3466 73.5384 20.446L74.7514 20.7244C75.4541 20.8868 75.9777 21.1371 76.3224 21.4751C76.6671 21.8132 76.8395 22.2524 76.8395 22.7926C76.8395 23.25 76.7069 23.6577 76.4418 24.0156C76.1799 24.3703 75.8137 24.6487 75.343 24.8509C74.8757 25.053 74.3338 25.1541 73.7173 25.1541C72.8622 25.1541 72.1645 24.9718 71.6243 24.6072C71.084 24.2393 70.7526 23.7173 70.63 23.0412L72.0668 22.8224C72.1563 23.197 72.3402 23.4804 72.6186 23.6726C72.897 23.8615 73.2599 23.956 73.7074 23.956C74.1946 23.956 74.584 23.8549 74.8757 23.6527C75.1674 23.4472 75.3132 23.197 75.3132 22.902C75.3132 22.6634 75.2237 22.4628 75.0447 22.3004C74.8691 22.138 74.599 22.0154 74.2344 21.9325L72.9418 21.6491C72.2292 21.4867 71.7022 21.2282 71.3608 20.8736C71.0227 20.5189 70.8537 20.0698 70.8537 19.5263C70.8537 19.0755 70.9796 18.6811 71.2315 18.343C71.4834 18.005 71.8314 17.7415 72.2756 17.5526C72.7197 17.3603 73.2285 17.2642 73.8018 17.2642C74.6271 17.2642 75.2768 17.4432 75.7507 17.8011C76.2247 18.1558 76.5379 18.6314 76.6903 19.228ZM82.1081 17.3636V18.5568H77.7928V17.3636H82.1081ZM78.976 25V16.4787C78.976 16.0014 79.0804 15.6053 79.2892 15.2905C79.498 14.9723 79.7748 14.7353 80.1195 14.5795C80.4642 14.4205 80.8387 14.3409 81.2431 14.3409C81.5414 14.3409 81.7966 14.3658 82.0087 14.4155C82.2208 14.4619 82.3783 14.505 82.481 14.5447L82.133 15.7479C82.0634 15.728 81.9739 15.7048 81.8645 15.6783C81.7551 15.6484 81.6226 15.6335 81.4668 15.6335C81.1055 15.6335 80.847 15.723 80.6912 15.902C80.5388 16.081 80.4625 16.3395 80.4625 16.6776V25H78.976ZM86.5577 25.1541C85.8418 25.1541 85.217 24.9901 84.6834 24.6619C84.1498 24.3338 83.7355 23.8748 83.4405 23.2848C83.1455 22.6948 82.998 22.0054 82.998 21.2166C82.998 20.4245 83.1455 19.7318 83.4405 19.1385C83.7355 18.5452 84.1498 18.0845 84.6834 17.7564C85.217 17.4283 85.8418 17.2642 86.5577 17.2642C87.2736 17.2642 87.8984 17.4283 88.432 17.7564C88.9656 18.0845 89.3799 18.5452 89.6749 19.1385C89.9699 19.7318 90.1174 20.4245 90.1174 21.2166C90.1174 22.0054 89.9699 22.6948 89.6749 23.2848C89.3799 23.8748 88.9656 24.3338 88.432 24.6619C87.8984 24.9901 87.2736 25.1541 86.5577 25.1541ZM86.5627 23.9062C87.0267 23.9062 87.4112 23.7836 87.7161 23.5384C88.021 23.2931 88.2464 22.9666 88.3922 22.5589C88.5414 22.1513 88.6159 21.7022 88.6159 21.2116C88.6159 20.7244 88.5414 20.277 88.3922 19.8693C88.2464 19.4583 88.021 19.1286 87.7161 18.88C87.4112 18.6314 87.0267 18.5071 86.5627 18.5071C86.0953 18.5071 85.7076 18.6314 85.3993 18.88C85.0944 19.1286 84.8674 19.4583 84.7182 19.8693C84.5724 20.277 84.4995 20.7244 84.4995 21.2116C84.4995 21.7022 84.5724 22.1513 84.7182 22.5589C84.8674 22.9666 85.0944 23.2931 85.3993 23.5384C85.7076 23.7836 86.0953 23.9062 86.5627 23.9062ZM91.7766 25V17.3636H93.2134V18.5767H93.293C93.4322 18.1657 93.6774 17.8426 94.0288 17.6072C94.3834 17.3686 94.7844 17.2493 95.2319 17.2493C95.3247 17.2493 95.4341 17.2526 95.56 17.2592C95.6893 17.2659 95.7904 17.2741 95.8633 17.2841V18.706C95.8036 18.6894 95.6976 18.6712 95.5451 18.6513C95.3926 18.6281 95.2402 18.6165 95.0877 18.6165C94.7364 18.6165 94.4232 18.6911 94.1481 18.8402C93.8763 18.986 93.6609 19.1899 93.5018 19.4517C93.3427 19.7102 93.2631 20.0052 93.2631 20.3366V25H91.7766ZM97.1497 25V17.3636H98.5765V18.6065H98.671C98.8301 18.1856 99.0903 17.8575 99.4515 17.6222C99.8128 17.3835 100.245 17.2642 100.749 17.2642C101.26 17.2642 101.687 17.3835 102.032 17.6222C102.38 17.8608 102.637 18.1889 102.802 18.6065H102.882C103.064 18.1989 103.354 17.8741 103.752 17.6321C104.15 17.3868 104.624 17.2642 105.174 17.2642C105.867 17.2642 106.432 17.4813 106.869 17.9155C107.31 18.3497 107.53 19.0043 107.53 19.8793V25H106.044V20.0185C106.044 19.5014 105.903 19.1269 105.621 18.8949C105.34 18.6629 105.003 18.5469 104.612 18.5469C104.128 18.5469 103.752 18.696 103.483 18.9943C103.215 19.2893 103.081 19.6688 103.081 20.1328V25H101.599V19.924C101.599 19.5097 101.47 19.1766 101.211 18.9247C100.953 18.6728 100.617 18.5469 100.202 18.5469C99.9205 18.5469 99.6603 18.6214 99.4217 18.7706C99.1864 18.9164 98.9958 19.1203 98.85 19.3821C98.7074 19.6439 98.6362 19.9472 98.6362 20.2919V25H97.1497Z" fill="white"/>
</svg>
