<svg width="84" height="40" viewBox="0 0 84 40" fill="none" xmlns="http://www.w3.org/2000/svg">
<rect x="0.5" y="0.5" width="83" height="39" rx="5.5" fill="#F5BC2A"/>
<rect x="0.5" y="0.5" width="83" height="39" rx="5.5" stroke="#F5BC2A"/>
<path d="M38.1186 25V14.8182H44.4325V16.1406H39.6548V19.2429H43.9801V20.5604H39.6548V25H38.1186ZM46.2024 25V17.3636H47.6889V25H46.2024ZM46.9531 16.1854C46.6946 16.1854 46.4725 16.0992 46.2869 15.9268C46.1046 15.7512 46.0135 15.5424 46.0135 15.3004C46.0135 15.0552 46.1046 14.8464 46.2869 14.674C46.4725 14.4983 46.6946 14.4105 46.9531 14.4105C47.2116 14.4105 47.4321 14.4983 47.6143 14.674C47.8 14.8464 47.8928 15.0552 47.8928 15.3004C47.8928 15.5424 47.8 15.7512 47.6143 15.9268C47.4321 16.0992 47.2116 16.1854 46.9531 16.1854ZM51.1752 14.8182V25H49.6887V14.8182H51.1752ZM56.7397 17.3636V18.5568H52.5685V17.3636H56.7397ZM53.6871 15.5341H55.1737V22.7578C55.1737 23.0462 55.2167 23.2633 55.3029 23.4091C55.3891 23.5516 55.5001 23.6494 55.636 23.7024C55.7752 23.7521 55.926 23.777 56.0884 23.777C56.2077 23.777 56.3121 23.7687 56.4016 23.7521C56.4911 23.7356 56.5607 23.7223 56.6104 23.7124L56.8789 24.9403C56.7927 24.9735 56.6701 25.0066 56.511 25.0398C56.3519 25.0762 56.1531 25.0961 55.9144 25.0994C55.5233 25.1061 55.1587 25.0365 54.8207 24.8906C54.4826 24.7448 54.2092 24.5194 54.0004 24.2145C53.7915 23.9096 53.6871 23.5268 53.6871 23.0661V15.5341ZM61.5932 25.1541C60.8408 25.1541 60.1929 24.9934 59.6493 24.6719C59.1091 24.3471 58.6915 23.8913 58.3965 23.3047C58.1048 22.7147 57.959 22.0237 57.959 21.2315C57.959 20.4493 58.1048 19.7599 58.3965 19.1634C58.6915 18.5668 59.1025 18.1011 59.6294 17.7663C60.1597 17.4316 60.7795 17.2642 61.4888 17.2642C61.9197 17.2642 62.3373 17.3355 62.7417 17.478C63.146 17.6205 63.5089 17.8442 63.8304 18.1491C64.1519 18.4541 64.4055 18.8501 64.5911 19.3374C64.7767 19.8213 64.8695 20.4096 64.8695 21.1023V21.6293H58.7992V20.5156H63.4128C63.4128 20.1245 63.3333 19.7782 63.1742 19.4766C63.0151 19.1716 62.7914 18.9313 62.503 18.7557C62.218 18.58 61.8832 18.4922 61.4988 18.4922C61.0811 18.4922 60.7166 18.5949 60.405 18.8004C60.0968 19.0026 59.8581 19.2678 59.6891 19.5959C59.5234 19.9207 59.4405 20.2737 59.4405 20.6548V21.5249C59.4405 22.0353 59.53 22.4695 59.709 22.8274C59.8913 23.1854 60.1448 23.4588 60.4696 23.6477C60.7944 23.8333 61.1739 23.9261 61.6081 23.9261C61.8899 23.9261 62.1467 23.8864 62.3787 23.8068C62.6107 23.724 62.8113 23.6013 62.9803 23.4389C63.1493 23.2765 63.2786 23.076 63.3681 22.8374L64.775 23.0909C64.6623 23.5052 64.4602 23.8681 64.1685 24.1797C63.8801 24.4879 63.5172 24.7282 63.0797 24.9006C62.6455 25.0696 62.15 25.1541 61.5932 25.1541ZM66.5188 25V17.3636H67.9556V18.5767H68.0352C68.1744 18.1657 68.4196 17.8426 68.771 17.6072C69.1256 17.3686 69.5266 17.2493 69.9741 17.2493C70.0669 17.2493 70.1763 17.2526 70.3022 17.2592C70.4315 17.2659 70.5326 17.2741 70.6055 17.2841V18.706C70.5458 18.6894 70.4397 18.6712 70.2873 18.6513C70.1348 18.6281 69.9824 18.6165 69.8299 18.6165C69.4786 18.6165 69.1654 18.6911 68.8903 18.8402C68.6185 18.986 68.4031 19.1899 68.244 19.4517C68.0849 19.7102 68.0053 20.0052 68.0053 20.3366V25H66.5188Z" fill="white"/>
<path d="M32 10H8L17.6 21.352V31.6H22.4V21.352L32 10Z" stroke="white" stroke-width="2" stroke-linecap="round" stroke-linejoin="round"/>
</svg>
