<svg width="80" height="40" viewBox="0 0 80 40" fill="none" xmlns="http://www.w3.org/2000/svg">
<path d="M0.5 6C0.5 2.96243 2.96243 0.5 6 0.5H74C77.0376 0.5 79.5 2.96243 79.5 6V34C79.5 37.0376 77.0376 39.5 74 39.5H6C2.96243 39.5 0.5 37.0376 0.5 34V6Z" fill="#C049C0"/>
<path d="M0.5 6C0.5 2.96243 2.96243 0.5 6 0.5H74C77.0376 0.5 79.5 2.96243 79.5 6V34C79.5 37.0376 77.0376 39.5 74 39.5H6C2.96243 39.5 0.5 37.0376 0.5 34V6Z" stroke="#C049C0"/>
<path d="M44.6719 17.4929C44.6188 17.0223 44.4001 16.6577 44.0156 16.3991C43.6312 16.1373 43.1473 16.0064 42.5639 16.0064C42.1463 16.0064 41.785 16.0727 41.4801 16.2053C41.1752 16.3345 40.9382 16.5135 40.7692 16.7422C40.6035 16.9676 40.5206 17.2244 40.5206 17.5128C40.5206 17.7547 40.5769 17.9635 40.6896 18.1392C40.8056 18.3149 40.9564 18.4624 41.142 18.5817C41.331 18.6977 41.5331 18.7955 41.7486 18.875C41.964 18.9512 42.1712 19.0142 42.37 19.0639L43.3643 19.3224C43.6892 19.402 44.0223 19.5097 44.3636 19.6456C44.705 19.7815 45.0215 19.9605 45.3132 20.1825C45.6049 20.4046 45.8402 20.6797 46.0192 21.0078C46.2015 21.3359 46.2926 21.7287 46.2926 22.1861C46.2926 22.7628 46.1435 23.2749 45.8452 23.7223C45.5502 24.1697 45.121 24.5227 44.5575 24.7812C43.9974 25.0398 43.3196 25.169 42.5241 25.169C41.7618 25.169 41.1023 25.0481 40.5455 24.8061C39.9886 24.5642 39.5528 24.2211 39.2379 23.777C38.9231 23.3295 38.7491 22.7992 38.7159 22.1861H40.2571C40.2869 22.554 40.4063 22.8606 40.6151 23.1058C40.8272 23.3478 41.0973 23.5284 41.4254 23.6477C41.7569 23.7637 42.1198 23.8217 42.5142 23.8217C42.9484 23.8217 43.3345 23.7538 43.6726 23.6179C44.014 23.4787 44.2824 23.2865 44.478 23.0412C44.6735 22.7926 44.7713 22.5026 44.7713 22.1712C44.7713 21.8696 44.6851 21.6226 44.5128 21.4304C44.3438 21.2382 44.1134 21.0791 43.8217 20.9531C43.5334 20.8272 43.2069 20.7161 42.8423 20.62L41.6392 20.2919C40.8239 20.0698 40.1776 19.7434 39.7003 19.3125C39.2263 18.8816 38.9893 18.3116 38.9893 17.6023C38.9893 17.0156 39.1484 16.5036 39.4666 16.0661C39.7848 15.6286 40.2157 15.2888 40.7592 15.0469C41.3028 14.8016 41.916 14.679 42.5987 14.679C43.2881 14.679 43.8963 14.8 44.4233 15.0419C44.9536 15.2839 45.3712 15.617 45.6761 16.0412C45.9811 16.4621 46.1402 16.946 46.1534 17.4929H44.6719ZM49.4956 20.4659V25H48.0091V14.8182H49.4757V18.6065H49.5701C49.7491 18.1955 50.0225 17.8691 50.3904 17.6271C50.7583 17.3852 51.2389 17.2642 51.8322 17.2642C52.3559 17.2642 52.8133 17.3719 53.2044 17.5874C53.5988 17.8028 53.9037 18.1243 54.1191 18.5518C54.3379 18.9761 54.4473 19.5064 54.4473 20.1428V25H52.9608V20.3217C52.9608 19.7616 52.8166 19.3274 52.5282 19.0192C52.2399 18.7076 51.8388 18.5518 51.3251 18.5518C50.9738 18.5518 50.6589 18.6264 50.3805 18.7756C50.1054 18.9247 49.8883 19.1435 49.7292 19.4318C49.5734 19.7169 49.4956 20.0616 49.4956 20.4659ZM56.4309 25V17.3636H57.9174V25H56.4309ZM57.1816 16.1854C56.9231 16.1854 56.7011 16.0992 56.5154 15.9268C56.3332 15.7512 56.242 15.5424 56.242 15.3004C56.242 15.0552 56.3332 14.8464 56.5154 14.674C56.7011 14.4983 56.9231 14.4105 57.1816 14.4105C57.4402 14.4105 57.6606 14.4983 57.8429 14.674C58.0285 14.8464 58.1213 15.0552 58.1213 15.3004C58.1213 15.5424 58.0285 15.7512 57.8429 15.9268C57.6606 16.0992 57.4402 16.1854 57.1816 16.1854ZM59.9173 27.8636V17.3636H61.369V18.6016H61.4933C61.5794 18.4425 61.7037 18.2585 61.8661 18.0497C62.0285 17.8409 62.2539 17.6586 62.5423 17.5028C62.8306 17.3438 63.2118 17.2642 63.6857 17.2642C64.3022 17.2642 64.8524 17.42 65.3363 17.7315C65.8202 18.0431 66.1997 18.4922 66.4748 19.0788C66.7532 19.6655 66.8924 20.3714 66.8924 21.1967C66.8924 22.022 66.7549 22.7296 66.4798 23.3196C66.2047 23.9062 65.8268 24.3587 65.3462 24.6768C64.8656 24.9917 64.3171 25.1491 63.7006 25.1491C63.2366 25.1491 62.8571 25.0713 62.5621 24.9155C62.2705 24.7597 62.0418 24.5774 61.8761 24.3686C61.7103 24.1598 61.5827 23.9742 61.4933 23.8118H61.4038V27.8636H59.9173ZM61.3739 21.1818C61.3739 21.7187 61.4518 22.1894 61.6076 22.5938C61.7634 22.9981 61.9888 23.3146 62.2837 23.5433C62.5787 23.7687 62.94 23.8814 63.3675 23.8814C63.8117 23.8814 64.1829 23.7637 64.4812 23.5284C64.7795 23.2898 65.0049 22.9666 65.1573 22.5589C65.3131 22.1513 65.391 21.6922 65.391 21.1818C65.391 20.678 65.3147 20.2256 65.1623 19.8246C65.0131 19.4235 64.7878 19.107 64.4862 18.875C64.1879 18.643 63.815 18.527 63.3675 18.527C62.9367 18.527 62.5721 18.638 62.2738 18.8601C61.9788 19.0821 61.7551 19.392 61.6026 19.7898C61.4502 20.1875 61.3739 20.6515 61.3739 21.1818Z" fill="white"/>
<path fill-rule="evenodd" clip-rule="evenodd" d="M22.8967 18.6868H33.3534C33.7113 18.6868 34 18.9767 34 19.3334V19.337V19.6439C34 21.8748 33.1144 24.0146 31.5375 25.5915C29.9592 27.1685 27.8205 28.0553 25.5898 28.0553H14.4101C12.1793 28.0553 10.0407 27.1685 8.46255 25.5915C6.88556 24.0145 6 21.8746 6 19.6439V19.337V19.3334C6 18.9767 6.28871 18.6868 6.64656 18.6868H9.10547V15.9174C9.10547 15.5607 9.39419 15.2708 9.75203 15.2708H12.6768V12.5013C12.6768 12.1447 12.9655 11.8548 13.3233 11.8548H16.117V10.6478C16.117 10.2899 16.407 10 16.7636 10C17.1214 10 17.4102 10.2899 17.4102 10.6478V11.8548H20.0001C20.273 11.8548 20.5168 12.027 20.609 12.2842L21.8257 15.6881C21.8282 15.6966 21.8318 15.7039 21.8342 15.7124L22.8967 18.6868ZM22.4284 19.9812H7.30138C7.38508 21.7462 8.12262 23.4214 9.37816 24.677C10.7126 26.0114 12.5225 26.761 14.41 26.761H25.5897C27.4772 26.761 29.287 26.0113 30.6215 24.677C31.877 23.4214 32.6146 21.7462 32.6982 19.9812H22.4527H22.4284ZM13.3232 16.5652H10.3985V18.6868H21.5223L20.7641 16.5652H13.3232ZM16.7634 13.1491H13.9697V15.2708H20.3021L19.5439 13.1491H16.7634ZM14.8759 22.4656C14.5193 22.4656 14.2293 22.1756 14.2293 21.8178C14.2293 21.4612 14.5193 21.1712 14.8759 21.1712H15.8075C16.1642 21.1712 16.4541 21.4611 16.4541 21.8178C16.4541 22.1756 16.1642 22.4656 15.8075 22.4656H14.8759ZM11.1493 22.4656C10.7927 22.4656 10.5028 22.1756 10.5028 21.8178C10.5028 21.4612 10.7927 21.1712 11.1493 21.1712H12.081C12.4376 21.1712 12.7275 21.4611 12.7275 21.8178C12.7275 22.1756 12.4376 22.4656 12.081 22.4656H11.1493Z" fill="white" stroke="white" stroke-width="0.5"/>
</svg>
