<svg width="108" height="108" viewBox="0 0 108 108" fill="none" xmlns="http://www.w3.org/2000/svg">
<rect x="0.71875" y="0.718262" width="107.222" height="107.222" rx="14.2963" fill="#32D1A4"/>
<path fill-rule="evenodd" clip-rule="evenodd" d="M53.4971 18.0001C53.1499 18.0024 52.7975 18.0774 52.4619 18.2333C42.9618 22.6458 40.1777 30.5149 39.8404 37.6225C39.6741 41.1275 40.0908 44.4879 40.5557 47.2269C40.7502 48.3727 40.9575 49.4328 41.1351 50.3409C41.1695 50.517 41.2028 50.6873 41.2347 50.8515C41.4408 51.9125 41.57 52.6337 41.6124 53.1078C41.632 53.3274 41.6795 53.5379 41.7511 53.736L37.2573 62.8593C36.8756 63.6342 36.921 64.5512 37.3773 65.2846C37.8336 66.018 38.6362 66.4639 39.5 66.4639H41.1769C40.8506 68.1373 40.6937 70.3608 40.8881 73.021C40.9289 73.5798 41.2778 74.0692 41.7928 74.2901C42.3077 74.511 42.9028 74.4265 43.3359 74.071C44.8206 72.8521 45.9642 72.0854 46.8003 71.6172C46.7427 74.0037 47.0071 76.9467 47.9165 79.7826C49.1559 83.6477 51.6598 87.4838 56.3419 89.2309C56.9167 89.4454 57.5643 89.2882 57.9767 88.8339C58.3892 88.3797 58.4835 87.7201 58.2147 87.1685C56.9384 84.5492 57.0232 81.332 57.7861 78.2107C58.1899 76.5588 58.7691 74.9953 59.3754 73.6553C60.292 75.3068 61.8068 77.0265 64.1857 78.1114C64.7736 78.3795 65.4672 78.241 65.907 77.7676C66.3469 77.2941 66.4341 76.5923 66.1234 76.0256C65.7963 75.4288 65.7094 74.4739 65.873 73.3126C66.0304 72.1952 66.3846 71.1342 66.649 70.5313C66.6558 70.5157 66.6623 70.5001 66.6686 70.4843C67.0369 69.5606 67.4109 68.0843 67.2835 66.6142C67.2792 66.5643 67.2743 66.5142 67.2687 66.4639H68.4643C69.3281 66.4639 70.1307 66.018 70.587 65.2846C71.0433 64.5512 71.0887 63.6342 70.707 62.8593L66.3294 53.9718C66.4553 53.7109 66.5377 53.4236 66.5663 53.1182C66.6123 52.6271 66.7414 51.896 66.9385 50.8289L66.9817 50.5951L66.9818 50.595C67.162 49.6205 67.3769 48.4591 67.5716 47.1865C67.9923 44.4364 68.3361 41.0657 68.0661 37.5496C67.7955 34.0275 66.9031 30.2789 64.7873 26.8396C62.6549 23.3732 59.3637 20.3595 54.5292 18.2153C54.1933 18.0663 53.8421 17.9973 53.4971 18.0001ZM44.248 66.4639L64.2337 66.4639C64.2618 66.5894 64.2819 66.7255 64.2947 66.8731C64.369 67.7301 64.1416 68.713 63.8902 69.3524C63.5338 70.1718 63.1009 71.4841 62.9023 72.8941C62.8784 73.0641 62.8572 73.2396 62.84 73.4194C61.6945 72.0622 61.2388 70.552 61.1619 69.7801C61.0985 69.1444 60.6395 68.6186 60.0183 68.47C59.397 68.3214 58.7498 68.5825 58.4056 69.1207C57.2387 70.9452 55.7181 74.0366 54.8719 77.4984C54.3257 79.7331 54.0386 82.215 54.374 84.6438C52.63 83.141 51.4883 81.0965 50.7733 78.8666C49.7016 75.5246 49.6555 71.9391 49.945 69.6946C50.0386 68.9684 49.5942 68.2806 48.8936 68.0676C48.3813 67.9118 47.8517 67.9961 47.4803 68.087C47.048 68.1928 46.5501 68.3805 45.9869 68.6565C45.3753 68.9562 44.6545 69.3759 43.8158 69.9494C43.8531 68.7947 43.9694 67.8126 44.1246 67.022C44.164 66.8213 44.2055 66.6353 44.248 66.4639ZM61.7855 51.2373L46.3929 51.2373C46.3181 50.8058 46.2314 50.3532 46.143 49.8982C46.1092 49.7243 46.0746 49.5472 46.0393 49.3669C45.8619 48.4592 45.6683 47.4688 45.4852 46.3901C45.0467 43.8069 44.693 40.8483 44.8348 37.8595C45.1003 32.2643 47.0567 26.7258 53.5426 23.2778C56.9115 24.9737 59.0993 27.1359 60.5286 29.4594C62.1167 32.041 62.8525 34.9608 63.0807 37.9325C63.3094 40.9101 63.0225 43.8584 62.6291 46.4305C62.4467 47.6229 62.2451 48.7126 62.0636 49.694L62.0636 49.6942L62.0217 49.9207C61.9389 50.3689 61.857 50.8139 61.7855 51.2373ZM46.0927 56.2373L43.5182 61.4639L64.4461 61.4639L61.8716 56.2373H46.0927ZM48.2948 70.9805C48.3061 70.98 48.3121 70.9792 48.3123 70.9789C48.3124 70.9787 48.3095 70.9787 48.3033 70.9794C48.3009 70.9797 48.2981 70.98 48.2948 70.9805Z" fill="white"/>
</svg>
