<svg width="35" height="35" viewBox="0 0 35 35" fill="none" xmlns="http://www.w3.org/2000/svg">
<circle cx="17.5" cy="17.5" r="17.5" fill="#D43FAA"/>
<path d="M17.9993 28.6311C17.2117 28.6311 16.4983 28.3118 15.9822 27.7951C15.4656 27.279 15.1469 26.5656 15.1469 25.778C15.1469 24.9904 15.4662 24.2769 15.9822 23.7609C16.385 23.3581 16.9077 23.0753 17.4926 22.97V16.449L13.1954 20.7462C13.5167 21.2079 13.7048 21.7683 13.7048 22.3731C13.7048 23.1607 13.3855 23.8742 12.8695 24.3902C12.3535 24.9062 11.64 25.2255 10.8524 25.2255C10.0648 25.2255 9.35135 24.9062 8.83532 24.3902C8.31929 23.8735 8 23.1607 8 22.3731C8 21.5855 8.31929 20.8721 8.83532 20.356C9.35201 19.84 10.0648 19.5207 10.8524 19.5207C11.4572 19.5207 12.0176 19.7088 12.4793 20.0301L17.4932 15.0162V8.73043L13.8472 12.3764C13.6492 12.5745 13.3286 12.5745 13.1305 12.3764C12.9324 12.1784 12.9324 11.8577 13.1305 11.6597L17.6416 7.14855C17.8397 6.95048 18.1603 6.95048 18.3584 7.14855L22.8695 11.6597C23.0676 11.8577 23.0676 12.1784 22.8695 12.3764C22.6714 12.5745 22.3508 12.5745 22.1528 12.3764L18.5068 8.73043V15.0162L23.5207 20.0301C23.9817 19.7088 24.5428 19.5207 25.1476 19.5207C25.9352 19.5207 26.6486 19.84 27.1647 20.356C27.6807 20.8727 28 21.5855 28 22.3731C28 23.1607 27.6807 23.8742 27.1647 24.3902C26.648 24.9062 25.9352 25.2255 25.1476 25.2255C24.36 25.2255 23.6465 24.9062 23.1305 24.3902C22.6138 23.8735 22.2952 23.1607 22.2952 22.3731C22.2952 21.7683 22.4833 21.2079 22.8046 20.7462L18.5074 16.449V22.97C19.0923 23.0746 19.615 23.3575 20.0178 23.7609C20.5338 24.2769 20.8531 24.9904 20.8531 25.778C20.8531 26.5656 20.5338 27.279 20.0178 27.7951C19.5011 28.3118 18.7883 28.6311 18.0007 28.6311H17.9993ZM10.8517 24.212C11.3598 24.212 11.8196 24.006 12.1521 23.6735C12.4846 23.3409 12.6906 22.8812 12.6906 22.3731C12.6906 21.865 12.4846 21.4053 12.1521 21.0728C11.8196 20.7402 11.3598 20.5342 10.8517 20.5342C10.3437 20.5342 9.88394 20.7402 9.5514 21.0728C9.21887 21.4053 9.01285 21.865 9.01285 22.3731C9.01285 22.8812 9.21887 23.3409 9.5514 23.6735C9.88394 24.006 10.3437 24.212 10.8517 24.212ZM23.8466 23.6735C24.1791 24.006 24.6388 24.212 25.1469 24.212C25.655 24.212 26.1147 24.006 26.4473 23.6735C26.7798 23.3409 26.9858 22.8812 26.9858 22.3731C26.9858 21.865 26.7798 21.4053 26.4473 21.0728C26.1147 20.7402 25.655 20.5342 25.1469 20.5342C24.6388 20.5342 24.1791 20.7402 23.8466 21.0728C23.514 21.4053 23.308 21.865 23.308 22.3731C23.308 22.8812 23.514 23.3409 23.8466 23.6735ZM16.699 27.079C17.0315 27.4115 17.4913 27.6175 17.9993 27.6175C18.5074 27.6175 18.9671 27.4115 19.2997 27.079C19.6322 26.7465 19.8382 26.2867 19.8382 25.7787C19.8382 25.2706 19.6322 24.8108 19.2997 24.4783C18.9671 24.1458 18.5074 23.9398 17.9993 23.9398C17.4913 23.9398 17.0315 24.1458 16.699 24.4783C16.3665 24.8108 16.1604 25.2706 16.1604 25.7787C16.1604 26.2867 16.3665 26.7465 16.699 27.079Z" fill="white" stroke="white" stroke-width="0.5"/>
</svg>
