<svg width="30" height="29" viewBox="0 0 30 29" fill="none" xmlns="http://www.w3.org/2000/svg">
<path d="M5.99916 13.1456C1.49191 0.60674 20.5037 -4.40599 22.6801 8.76473C28.76 9.537 31.2173 17.6388 26.6118 21.6687C25.2076 22.9464 23.3963 23.6485 21.5007 23.6344H21.3743" stroke="#292D32" stroke-width="1.5" stroke-miterlimit="10" stroke-linecap="round" stroke-linejoin="round"/>
<path d="M5.92849 13.1455C-0.64283 13.6089 -0.64283 23.171 5.92849 23.6343H13.9857" stroke="#292D32" stroke-width="1.5" stroke-miterlimit="10" stroke-linecap="round" stroke-linejoin="round"/>
<path d="M20.1476 14.126C16.2722 14.126 13.127 17.2712 13.127 21.1466C13.127 22.1857 13.3516 23.1686 13.7729 24.0391C13.8852 24.2919 14.0116 24.5306 14.152 24.7552C15.3595 26.7912 17.5921 28.1673 20.1476 28.1673C22.7031 28.1673 24.9357 26.7912 26.1432 24.7552C26.2836 24.5306 26.41 24.2919 26.5223 24.0391C26.9436 23.1686 27.1682 22.1857 27.1682 21.1466C27.1682 17.2712 24.023 14.126 20.1476 14.126ZM23.0541 20.5428L20.0633 23.309C19.8668 23.4915 19.6 23.5898 19.3472 23.5898C19.0805 23.5898 18.8137 23.4915 18.6031 23.2809L17.213 21.8908C16.8058 21.4836 16.8058 20.8096 17.213 20.4024C17.6202 19.9952 18.2941 19.9952 18.7013 20.4024L19.3753 21.0764L21.6219 18.9983C22.0572 18.6051 22.7172 18.6332 23.1103 19.0545C23.5035 19.4757 23.4754 20.1356 23.0541 20.5428Z" fill="#07A260"/>
</svg>
