<svg width="35" height="36" viewBox="0 0 35 36" fill="none" xmlns="http://www.w3.org/2000/svg">
<circle cx="17.5" cy="18.2717" r="17.5" fill="#4AB94C"/>
<path d="M17.1667 25.0134C17.1667 25.4301 17.0083 25.8467 16.6833 26.1634L14.5417 28.2634C14.4583 28.3384 14.3583 28.3801 14.25 28.3801C14.1417 28.3801 14.0333 28.3384 13.95 28.2551C13.7917 28.0884 13.7917 27.8301 13.95 27.6634L16.0917 25.5717C16.1417 25.5217 16.175 25.4717 16.2083 25.4217H11.75C10.1417 25.4217 8.83333 24.1134 8.83333 22.5051V20.0051C8.83333 19.7717 9.01667 19.5884 9.25 19.5884C9.48333 19.5884 9.66667 19.7717 9.66667 20.0051V22.5051C9.66667 23.6551 10.6 24.5884 11.75 24.5884H16.2167C16.1833 24.5301 16.1417 24.4801 16.0917 24.4301L13.95 22.3384C13.7833 22.1801 13.7833 21.9134 13.95 21.7467C14.1167 21.5801 14.375 21.5801 14.5417 21.7467L16.6833 23.8384C17 24.1551 17.1667 24.5801 17.1667 24.9967V25.0134ZM19.3167 13.6884L21.4583 15.7801C21.5417 15.8551 21.6417 15.8967 21.75 15.8967C21.8583 15.8967 21.9667 15.8551 22.05 15.7717C22.2083 15.6051 22.2083 15.3467 22.05 15.1801L19.9083 13.0884C19.8583 13.0384 19.8167 12.9884 19.7833 12.9301H24.25C25.4 12.9301 26.3333 13.8634 26.3333 15.0134V17.5134C26.3333 17.7467 26.5167 17.9301 26.75 17.9301C26.9833 17.9301 27.1667 17.7467 27.1667 17.5134V15.0134C27.1667 13.4051 25.8583 12.0967 24.25 12.0967H19.7833C19.8167 12.0384 19.8583 11.9884 19.9 11.9467L22.0417 9.85506C22.2083 9.69673 22.2083 9.43006 22.0417 9.2634C21.8833 9.09673 21.6167 9.09673 21.45 9.2634L19.3083 11.3634C18.9917 11.6801 18.8333 12.0967 18.825 12.5134C18.825 12.9301 18.9917 13.3467 19.3083 13.6717L19.3167 13.6884ZM28 22.5217V25.8551C28 27.4634 26.6917 28.7717 25.0833 28.7717H21.75C20.1417 28.7717 18.8333 27.4634 18.8333 25.8551V22.5217C18.8333 20.9134 20.1417 19.6051 21.75 19.6051H25.0833C26.6917 19.6051 28 20.9134 28 22.5217ZM27.1667 22.5217C27.1667 21.3717 26.2333 20.4384 25.0833 20.4384H21.75C20.6 20.4384 19.6667 21.3717 19.6667 22.5217V25.8551C19.6667 27.0051 20.6 27.9384 21.75 27.9384H25.0833C26.2333 27.9384 27.1667 27.0051 27.1667 25.8551V22.5217ZM17.1667 11.6884V15.0217C17.1667 16.6301 15.8583 17.9384 14.25 17.9384H10.9167C9.30833 17.9384 8 16.6301 8 15.0217V11.6884C8 10.0801 9.30833 8.77173 10.9167 8.77173H14.25C15.8583 8.77173 17.1667 10.0801 17.1667 11.6884ZM16.3333 11.6884C16.3333 10.5384 15.4 9.60506 14.25 9.60506H10.9167C9.76667 9.60506 8.83333 10.5384 8.83333 11.6884V15.0217C8.83333 16.1717 9.76667 17.1051 10.9167 17.1051H14.25C15.4 17.1051 16.3333 16.1717 16.3333 15.0217V11.6884Z" fill="white" stroke="white" stroke-width="0.5"/>
</svg>
