<svg width="19" height="19" viewBox="0 0 19 19" fill="none" xmlns="http://www.w3.org/2000/svg">
<path d="M12.4055 10.3334V13.4445C12.4055 16.0371 11.3685 17.0741 8.7759 17.0741H5.66479C3.07219 17.0741 2.03516 16.0371 2.03516 13.4445V10.3334C2.03516 7.74077 3.07219 6.70374 5.66479 6.70374H8.7759C11.3685 6.70374 12.4055 7.74077 12.4055 10.3334Z" stroke="#292D32" stroke-width="1.33333" stroke-linecap="round" stroke-linejoin="round"/>
<path d="M16.8508 5.88891V9.00002C16.8508 11.5926 15.8138 12.6296 13.2212 12.6296H12.4064V10.3334C12.4064 7.74076 11.3694 6.70372 8.77677 6.70372H6.48047V5.88891C6.48047 3.29631 7.51751 2.25928 10.1101 2.25928H13.2212C15.8138 2.25928 16.8508 3.29631 16.8508 5.88891Z" stroke="#292D32" stroke-width="1.33333" stroke-linecap="round" stroke-linejoin="round"/>
</svg>
