<svg width="35" height="35" viewBox="0 0 35 35" fill="none" xmlns="http://www.w3.org/2000/svg">
<circle cx="17.5" cy="17.5" r="17.5" fill="#E96F4A"/>
<path d="M10.1666 13.4153C10.1794 13.3855 10.1979 13.3584 10.2212 13.3357C10.2444 13.313 10.2719 13.2951 10.3021 13.2831C10.3323 13.271 10.3645 13.265 10.397 13.2654C10.4295 13.2658 10.4616 13.2726 10.4915 13.2854L10.7422 13.3928C10.772 13.4056 10.7991 13.4241 10.8218 13.4474C10.8445 13.4706 10.8623 13.4981 10.8744 13.5283C10.8865 13.5585 10.8925 13.5907 10.8921 13.6232C10.8917 13.6557 10.8849 13.6878 10.8721 13.7177C10.8593 13.7475 10.8407 13.7746 10.8175 13.7973C10.7942 13.8199 10.7667 13.8378 10.7365 13.8499C10.7064 13.862 10.6741 13.868 10.6416 13.8676C10.6091 13.8672 10.577 13.8604 10.5472 13.8476L10.2965 13.7402C10.2666 13.7274 10.2395 13.7089 10.2169 13.6856C10.1942 13.6624 10.1763 13.6349 10.1642 13.6047C10.1521 13.5745 10.1461 13.5423 10.1465 13.5098C10.1469 13.4773 10.1538 13.4452 10.1666 13.4153ZM10.2965 17.7857L10.5472 17.893C10.5779 17.9063 10.611 17.9132 10.6444 17.9132C10.7014 17.9132 10.7566 17.8935 10.8008 17.8575C10.8449 17.8215 10.8753 17.7713 10.8868 17.7155C10.8983 17.6597 10.8901 17.6017 10.8638 17.5512C10.8375 17.5006 10.7945 17.4608 10.7422 17.4382L10.4915 17.3309C10.4312 17.305 10.363 17.3042 10.3021 17.3286C10.2412 17.3529 10.1924 17.4005 10.1666 17.4608C10.1407 17.5211 10.1399 17.5892 10.1642 17.6502C10.1886 17.7111 10.2362 17.7599 10.2965 17.7857ZM10.7422 21.4837L10.4915 21.3764C10.4314 21.3519 10.3641 21.3521 10.3041 21.3767C10.2441 21.4014 10.1962 21.4486 10.1706 21.5082C10.1451 21.5678 10.144 21.6351 10.1675 21.6955C10.191 21.756 10.2373 21.8048 10.2965 21.8314L10.5472 21.9388C10.5779 21.952 10.611 21.9588 10.6444 21.9587C10.7014 21.9587 10.7566 21.939 10.8008 21.903C10.8449 21.867 10.8753 21.8168 10.8868 21.761C10.8983 21.7052 10.8901 21.6472 10.8638 21.5966C10.8375 21.5461 10.7945 21.5062 10.7422 21.4837ZM28.3574 19.4685C28.3266 19.8136 28.1984 20.1429 27.9879 20.418C27.879 20.5723 27.7918 20.7407 27.7288 20.9187C27.6917 21.1066 27.6818 21.2988 27.6995 21.4895C27.7432 21.8139 27.6927 22.144 27.5539 22.4404C27.3633 22.7054 27.1006 22.9101 26.7971 23.0302C26.6267 23.1049 26.4682 23.2043 26.3266 23.325C26.2693 23.3852 26.2194 23.4519 26.178 23.5239L27.6764 27.2068C27.6959 27.2544 27.7 27.3069 27.6883 27.357C27.6765 27.4071 27.6494 27.4523 27.6107 27.4862C27.572 27.5202 27.5238 27.5412 27.4726 27.5464C27.4214 27.5517 27.3698 27.5408 27.3251 27.5153L25.6166 26.5466L25.0715 28.4341C25.0572 28.4835 25.0279 28.5272 24.9876 28.5592C24.9473 28.5911 24.8981 28.6098 24.8467 28.6125H24.8335C24.7843 28.6125 24.7363 28.5978 24.6954 28.5703C24.6546 28.5429 24.6229 28.5039 24.6044 28.4583L23.2371 25.0994C23.0091 25.2534 22.7435 25.3426 22.4687 25.3575C22.1939 25.3426 21.9283 25.2534 21.7003 25.0994L20.3323 28.4576C20.3137 28.5032 20.282 28.5422 20.2412 28.5696C20.2004 28.5971 20.1524 28.6118 20.1032 28.6118H20.09C20.0386 28.609 19.9894 28.5904 19.9491 28.5584C19.9088 28.5265 19.8795 28.4827 19.8652 28.4333L19.3201 26.5459L17.6125 27.5153C17.5678 27.5408 17.5163 27.5517 17.4651 27.5464C17.4139 27.5412 17.3656 27.5202 17.3269 27.4862C17.2883 27.4523 17.2612 27.4071 17.2494 27.357C17.2376 27.3069 17.2417 27.2544 17.2612 27.2068L18.3838 24.4498C17.4335 24.6048 16.4721 24.6816 15.5092 24.6796C13.6362 24.6796 11.8717 24.4063 10.5407 23.9112C9.1328 23.3865 8.35742 22.658 8.35742 21.8595V9.82105C8.35742 9.02286 9.1328 8.29406 10.5407 7.76938C11.8708 7.27327 13.6353 7 15.5083 7C17.3813 7 19.1455 7.27327 20.4766 7.76842C21.8845 8.2931 22.6598 9.0219 22.6598 9.82009V13.5976C22.9324 13.666 23.1896 13.7852 23.4179 13.9489C23.5722 14.0578 23.7407 14.1451 23.9186 14.2082C24.1065 14.2452 24.2987 14.2551 24.4894 14.2375C24.814 14.1936 25.1445 14.2443 25.441 14.3835C25.7059 14.5743 25.9106 14.8369 26.0308 15.1404C26.1056 15.3108 26.205 15.4694 26.3257 15.6111C26.4672 15.732 26.6258 15.8313 26.7963 15.906C27.1001 16.0259 27.3631 16.2306 27.5539 16.4957C27.6932 16.7924 27.7439 17.1229 27.7002 17.4476C27.6824 17.6382 27.6923 17.8304 27.7295 18.0182C27.7926 18.1961 27.8797 18.3646 27.9886 18.5188C28.1989 18.7941 28.3268 19.1235 28.3574 19.4685ZM8.85137 9.82105C8.85137 10.3892 9.52974 10.9679 10.7126 11.4088C11.9896 11.885 13.6929 12.147 15.5083 12.147C17.3237 12.147 19.0267 11.885 20.3039 11.4088C21.4866 10.9679 22.1649 10.3892 22.1649 9.82105C22.1649 9.25291 21.4866 8.67395 20.3039 8.23307C19.0267 7.75713 17.3244 7.49491 15.5083 7.49491C13.6922 7.49491 11.9896 7.75713 10.7126 8.23307C9.52974 8.67395 8.85137 9.25267 8.85137 9.82105ZM8.85137 13.8336C8.85137 14.4018 9.52974 14.9805 10.7126 15.4214C11.9896 15.8976 13.6929 16.1595 15.5083 16.1595C16.3373 16.1613 17.1653 16.1033 17.9859 15.9859C18.0378 15.9583 18.0897 15.9319 18.1403 15.906C18.3109 15.8313 18.4694 15.732 18.611 15.6111C18.7319 15.4696 18.8313 15.311 18.9059 15.1404C19.026 14.837 19.2307 14.5743 19.4956 14.3838C19.7923 14.2445 20.1228 14.1937 20.4475 14.2375C20.6382 14.255 20.8304 14.2452 21.0183 14.2082C21.1962 14.145 21.3645 14.0578 21.5187 13.9489C21.7179 13.811 21.9354 13.7017 22.1649 13.6242V10.8822C21.6787 11.3283 21.1032 11.6659 20.4766 11.8727C19.1455 12.3688 17.3811 12.6411 15.5083 12.6411C13.6355 12.6411 11.8708 12.3679 10.5397 11.8727C9.91317 11.6658 9.33769 11.3282 8.85137 10.8822V13.8336ZM8.85137 17.8462C8.85137 18.4144 9.52974 18.9931 10.7126 19.434C11.9896 19.9099 13.6929 20.1721 15.5083 20.1721C15.9347 20.1721 16.3595 20.1575 16.7754 20.1282C16.6554 19.9284 16.5879 19.7015 16.5793 19.4685C16.6102 19.1235 16.7383 18.7942 16.9488 18.5191C17.0576 18.3647 17.1449 18.1963 17.2082 18.0184C17.2451 17.8305 17.255 17.6383 17.2375 17.4476C17.2014 17.148 17.2394 16.8442 17.3482 16.5627C16.7368 16.6242 16.1227 16.6549 15.5083 16.6545C13.6353 16.6545 11.8708 16.3812 10.5397 15.886C9.91314 15.6793 9.33765 15.3417 8.85137 14.8957V17.8462ZM18.6036 23.9076L18.7596 23.5246C18.7182 23.4527 18.6683 23.386 18.611 23.326C18.4694 23.2051 18.3109 23.1056 18.1403 23.0309C17.8368 22.9106 17.5742 22.7056 17.3837 22.4404C17.2443 22.1439 17.1935 21.8134 17.2375 21.4888C17.255 21.2981 17.2451 21.1059 17.2082 20.918C17.1732 20.8067 17.1241 20.7003 17.0622 20.6015C16.5548 20.6445 16.033 20.6663 15.5083 20.6663C13.6353 20.6663 11.8708 20.393 10.5397 19.8979C9.91314 19.6911 9.33765 19.3536 8.85137 18.9076V21.8588C8.85137 22.4272 9.52974 23.0059 10.7126 23.4468C11.9896 23.9227 13.6929 24.1849 15.5083 24.1849C16.5464 24.1883 17.5826 24.0954 18.6036 23.9076ZM21.2714 24.8388C21.1916 24.7924 21.1067 24.7555 21.0183 24.7288C20.8304 24.6918 20.6382 24.6819 20.4475 24.6995C20.1228 24.7434 19.7923 24.6926 19.4956 24.5533C19.3145 24.4379 19.1658 24.2782 19.0634 24.0894L17.9876 26.7327L19.3487 25.9602C19.3812 25.9417 19.4175 25.9309 19.4549 25.9284C19.4922 25.926 19.5296 25.932 19.5643 25.9461C19.599 25.9602 19.63 25.982 19.655 26.0098C19.6801 26.0376 19.6985 26.0708 19.7089 26.1067L20.143 27.6104L21.2714 24.8388ZM26.9491 26.7327L25.873 24.0894C25.7707 24.2783 25.6219 24.438 25.4408 24.5535C25.1443 24.6929 24.8138 24.7436 24.4892 24.6998C24.2985 24.6821 24.1062 24.692 23.9184 24.7291C23.8299 24.7558 23.7449 24.7927 23.665 24.8391L24.7936 27.6107L25.228 26.107C25.2384 26.071 25.2568 26.0378 25.2818 26.01C25.3068 25.9821 25.3379 25.9603 25.3726 25.9462C25.4072 25.9321 25.4447 25.9261 25.482 25.9285C25.5194 25.931 25.5557 25.9419 25.5882 25.9605L26.9491 26.7327ZM27.8616 19.4685C27.8257 19.2179 27.7244 18.9812 27.5679 18.7823C27.432 18.5878 27.3251 18.3747 27.2504 18.1495C27.1983 17.9131 27.1826 17.6702 27.2038 17.4291C27.2371 17.1983 27.21 16.9629 27.1251 16.7457C26.9784 16.5666 26.7874 16.4291 26.5711 16.3468C26.3533 16.2502 26.1521 16.1199 25.9748 15.9607C25.8157 15.7835 25.6854 15.5824 25.5887 15.3647C25.5064 15.1483 25.3689 14.9572 25.1899 14.8105C24.9727 14.7257 24.7372 14.6985 24.5064 14.7317C24.2653 14.7529 24.0224 14.7372 23.7861 14.6851C23.5609 14.6105 23.3478 14.5036 23.1533 14.3677C22.9545 14.2111 22.7178 14.1098 22.4673 14.074C22.2166 14.1098 21.9799 14.2111 21.781 14.3677C21.5866 14.5037 21.3734 14.6106 21.1482 14.6851C20.9119 14.7377 20.669 14.7539 20.4278 14.7332C20.1971 14.6998 19.9616 14.7268 19.7444 14.8117C19.5654 14.9584 19.4278 15.1495 19.3456 15.3659C19.2489 15.5836 19.1186 15.7848 18.9594 15.9622C18.7821 16.1211 18.581 16.2513 18.3634 16.348C18.147 16.4303 17.9559 16.5678 17.8092 16.7469C17.7244 16.9642 17.6973 17.1997 17.7304 17.4306C17.7517 17.6717 17.736 17.9146 17.6839 18.1509C17.6093 18.3762 17.5024 18.5895 17.3664 18.7839C17.2098 18.9828 17.1085 19.2194 17.0727 19.47C17.1086 19.7206 17.2099 19.9573 17.3664 20.1563C17.5025 20.3501 17.6097 20.5627 17.6846 20.7873C17.7371 21.0236 17.7533 21.2666 17.7326 21.5077C17.6992 21.7386 17.7263 21.9741 17.8111 22.1914C17.9579 22.3704 18.149 22.5078 18.3653 22.59C18.583 22.6868 18.7842 22.8171 18.9616 22.9761C19.0767 23.0977 19.1737 23.2352 19.2497 23.3844L19.2541 23.3925C19.2862 23.4521 19.3172 23.5126 19.3475 23.5721C19.4298 23.7885 19.5673 23.9796 19.7463 24.1264C19.9636 24.2112 20.1991 24.2383 20.43 24.2049C20.5131 24.2018 20.5981 24.1989 20.6814 24.1989C20.8392 24.1954 20.9968 24.2131 21.1499 24.2517C21.3751 24.3262 21.5883 24.4331 21.7826 24.5692C21.9817 24.7256 22.2184 24.8268 22.4689 24.8626C22.7194 24.8267 22.956 24.7255 23.155 24.5692C23.3494 24.4332 23.5625 24.3262 23.7877 24.2517C24.024 24.1992 24.267 24.183 24.5081 24.2037C24.739 24.2371 24.9746 24.21 25.1918 24.1249C25.3707 23.9782 25.5082 23.7872 25.5904 23.5709C25.6209 23.5111 25.6516 23.4509 25.6838 23.3913L25.6884 23.3834C25.7643 23.2342 25.8613 23.0967 25.9765 22.9752C26.1539 22.8161 26.355 22.6858 26.5728 22.589C26.7891 22.5068 26.9801 22.3694 27.1268 22.1904C27.2117 21.9732 27.2388 21.7376 27.2055 21.5068C27.1843 21.2657 27.2 21.0227 27.2521 20.7864C27.3268 20.5613 27.4338 20.3481 27.5696 20.1536C27.7257 19.955 27.8267 19.7187 27.8625 19.4685H27.8616ZM25.9717 19.4685C25.9717 20.1617 25.7662 20.8392 25.3811 21.4155C24.996 21.9918 24.4487 22.4409 23.8083 22.7061C23.1679 22.9713 22.4633 23.0407 21.7835 22.9054C21.1037 22.7701 20.4793 22.4362 19.9893 21.9461C19.4993 21.4559 19.1656 20.8314 19.0305 20.1516C18.8954 19.4718 18.9649 18.7672 19.2303 18.1269C19.4957 17.4866 19.945 16.9394 20.5214 16.5544C21.0977 16.1695 21.7753 15.9641 22.4685 15.9643C23.3975 15.9654 24.2882 16.3349 24.9451 16.9919C25.6021 17.6488 25.9716 18.5395 25.9727 19.4685H25.9717ZM25.4766 19.4685C25.4766 18.8733 25.3 18.2914 24.9693 17.7965C24.6386 17.3016 24.1685 16.9159 23.6186 16.6882C23.0686 16.4604 22.4635 16.4009 21.8797 16.5171C21.2959 16.6334 20.7597 16.9201 20.3389 17.3411C19.9181 17.762 19.6316 18.2984 19.5156 18.8822C19.3996 19.466 19.4594 20.0711 19.6874 20.621C19.9153 21.1709 20.3012 21.6408 20.7962 21.9713C21.2913 22.3018 21.8732 22.4781 22.4685 22.4779C23.2663 22.4769 24.0311 22.1595 24.5952 21.5954C25.1593 21.0312 25.4766 20.2663 25.4775 19.4685H25.4766ZM24.275 18.1613C24.2247 18.1191 24.1597 18.0986 24.0944 18.1042C24.029 18.1099 23.9685 18.1413 23.9263 18.1915L22.3191 20.1034L21.5987 19.4837C21.549 19.4409 21.4843 19.4196 21.4188 19.4245C21.3534 19.4294 21.2926 19.4601 21.2498 19.5098C21.207 19.5596 21.1857 19.6243 21.1906 19.6897C21.1955 19.7552 21.2262 19.816 21.276 19.8588L22.1861 20.6421C22.231 20.6806 22.2882 20.7018 22.3474 20.7019C22.3542 20.7019 22.3609 20.7019 22.3674 20.7019C22.4 20.6992 22.4318 20.6901 22.4609 20.6751C22.49 20.6601 22.5158 20.6395 22.5369 20.6144L24.3045 18.5107C24.3256 18.4858 24.3415 18.4571 24.3515 18.426C24.3614 18.395 24.3651 18.3623 24.3623 18.3298C24.3596 18.2974 24.3505 18.2658 24.3355 18.2368C24.3205 18.2079 24.2999 18.1822 24.275 18.1613Z" fill="white" stroke="white" stroke-width="0.5"/>
</svg>
