<svg width="12" height="12" viewBox="0 0 12 12" fill="none" xmlns="http://www.w3.org/2000/svg">
<path d="M5.875 0.5C5.97446 0.5 6.06984 0.539509 6.14016 0.609835C6.21049 0.680161 6.25 0.775544 6.25 0.875V2H9.516C9.726 2 9.929 2.075 10.0875 2.2125L11.681 3.5875C11.7762 3.66964 11.8526 3.77134 11.9049 3.88566C11.9573 3.99999 11.9844 4.12426 11.9844 4.25C11.9844 4.37574 11.9573 4.50001 11.9049 4.61434C11.8526 4.72866 11.7762 4.83036 11.681 4.9125L10.0875 6.2875C9.92864 6.42456 9.72582 6.49998 9.516 6.5H6.25V11.125C6.25 11.2245 6.21049 11.3198 6.14016 11.3902C6.06984 11.4605 5.97446 11.5 5.875 11.5C5.77554 11.5 5.68016 11.4605 5.60984 11.3902C5.53951 11.3198 5.5 11.2245 5.5 11.125V6.5H1.875C1.64294 6.5 1.42038 6.40781 1.25628 6.24372C1.09219 6.07962 1 5.85706 1 5.625V2.875C1 2.3915 1.392 2 1.875 2H5.5V0.875C5.5 0.775544 5.53951 0.680161 5.60984 0.609835C5.68016 0.539509 5.77554 0.5 5.875 0.5ZM9.516 2.75H1.875C1.84185 2.75 1.81005 2.76317 1.78661 2.78661C1.76317 2.81005 1.75 2.84185 1.75 2.875V5.625C1.75 5.694 1.806 5.75 1.875 5.75H9.516C9.546 5.75 9.575 5.7395 9.5975 5.72L11.1915 4.345C11.2054 4.33336 11.2165 4.31882 11.2242 4.30241C11.2318 4.286 11.2358 4.26811 11.2358 4.25C11.2358 4.23189 11.2318 4.214 11.2242 4.19759C11.2165 4.18118 11.2054 4.16664 11.1915 4.155L9.5975 2.78C9.57481 2.76054 9.54589 2.74989 9.516 2.75Z" fill="black"/>
</svg>
