<svg width="18" height="19" viewBox="0 0 18 19" fill="none" xmlns="http://www.w3.org/2000/svg">
<path d="M15.7767 5.20741C13.31 4.96296 10.8285 4.83704 8.35447 4.83704C6.8878 4.83704 5.42114 4.91111 3.95447 5.05926L2.44336 5.20741" stroke="#292D32" stroke-width="1.33333" stroke-linecap="round" stroke-linejoin="round"/>
<path d="M6.51758 4.45928L6.68054 3.48891C6.79906 2.7852 6.88795 2.25928 8.1398 2.25928H10.0805C11.3324 2.25928 11.4287 2.81483 11.5398 3.49631L11.7028 4.45928" stroke="#292D32" stroke-width="1.33333" stroke-linecap="round" stroke-linejoin="round"/>
<path d="M14.1833 7.5481L13.7018 15.0074C13.6203 16.1703 13.5537 17.074 11.487 17.074H6.73145C4.66479 17.074 4.59812 16.1703 4.51664 15.0074L4.03516 7.5481" stroke="#292D32" stroke-width="1.33333" stroke-linecap="round" stroke-linejoin="round"/>
<path d="M7.87109 13H10.3378" stroke="#292D32" stroke-width="1.33333" stroke-linecap="round" stroke-linejoin="round"/>
<path d="M7.25781 10.037H10.9615" stroke="#292D32" stroke-width="1.33333" stroke-linecap="round" stroke-linejoin="round"/>
</svg>
