<svg width="122" height="122" viewBox="0 0 122 122" fill="none" xmlns="http://www.w3.org/2000/svg">
<rect x="7.71875" y="5.71826" width="107.222" height="107.222" rx="14.2963" fill="#FF7396"/>
<path d="M85.3551 47.471C84.7754 46.6739 83.6884 46.3841 82.8188 46.9638C81.9493 47.5435 81.7319 48.6304 82.3116 49.5L87.6739 57.6159L81.6594 57.6884C81.442 57.6159 81.2971 57.5435 81.0797 57.5435H79.2681C61.0797 57.5435 43.9783 50.442 31.0797 37.5435C30.3551 36.8188 29.1957 36.8188 28.5435 37.5435C27.8188 38.2681 27.8188 39.4275 28.5435 40.0797C38.2536 49.7899 50.2826 56.3841 63.3985 59.3551C50.2826 62.3261 38.2536 68.9203 28.5435 78.7029C27.8188 79.4275 27.8188 80.587 28.5435 81.2391C28.9058 81.6015 29.3406 81.7464 29.8478 81.7464C30.3551 81.7464 30.7899 81.6015 31.1522 81.2391C44.0507 68.3406 61.1522 61.2391 79.3406 61.2391L87.7464 61.1667L82.3841 69.2101C81.8044 70.0072 82.0217 71.1667 82.8913 71.7464C83.1812 71.9638 83.5435 72.0362 83.9058 72.0362C84.4855 72.0362 85.0652 71.7464 85.4275 71.2391L92.6739 60.3696C93.1087 59.7899 93.1087 58.9928 92.6739 58.3406L85.3551 47.471Z" fill="white" stroke="white" stroke-width="0.5"/>
<path fill-rule="evenodd" clip-rule="evenodd" d="M114.395 68.4681C118.576 68.3979 121.944 64.9865 121.944 60.7885C121.944 56.5905 118.576 53.1791 114.395 53.1089V68.4681Z" fill="#D64E70"/>
<rect x="7.71875" y="5.71826" width="107.222" height="107.222" rx="14.2963" fill="#FF7396"/>
<path d="M85.3551 47.471C84.7754 46.6739 83.6884 46.3841 82.8188 46.9638C81.9493 47.5435 81.7319 48.6304 82.3116 49.5L87.6739 57.6159L81.6594 57.6884C81.442 57.6159 81.2971 57.5435 81.0797 57.5435H79.2681C61.0797 57.5435 43.9783 50.442 31.0797 37.5435C30.3551 36.8188 29.1957 36.8188 28.5435 37.5435C27.8188 38.2681 27.8188 39.4275 28.5435 40.0797C38.2536 49.7899 50.2826 56.3841 63.3985 59.3551C50.2826 62.3261 38.2536 68.9203 28.5435 78.7029C27.8188 79.4275 27.8188 80.587 28.5435 81.2391C28.9058 81.6015 29.3406 81.7464 29.8478 81.7464C30.3551 81.7464 30.7899 81.6015 31.1522 81.2391C44.0507 68.3406 61.1522 61.2391 79.3406 61.2391L87.7464 61.1667L82.3841 69.2101C81.8044 70.0072 82.0217 71.1667 82.8913 71.7464C83.1812 71.9638 83.5435 72.0362 83.9058 72.0362C84.4855 72.0362 85.0652 71.7464 85.4275 71.2391L92.6739 60.3696C93.1087 59.7899 93.1087 58.9928 92.6739 58.3406L85.3551 47.471Z" fill="white" stroke="white" stroke-width="0.5"/>
<path fill-rule="evenodd" clip-rule="evenodd" d="M114.395 68.4681C118.576 68.3979 121.944 64.9865 121.944 60.7885C121.944 56.5905 118.576 53.1791 114.395 53.1089V68.4681Z" fill="#D64E70"/>
<path fill-rule="evenodd" clip-rule="evenodd" d="M7.54688 67.9998C7.53061 67.9999 7.51434 68 7.49805 68C3.35591 68 -0.00195312 64.6421 -0.00195312 60.5C-0.00195312 56.3579 3.35591 53 7.49805 53C7.51434 53 7.53061 53.0001 7.54688 53.0002V67.9998Z" fill="#D64E70"/>
</svg>
