<svg width="121" height="108" viewBox="0 0 121 108" fill="none" xmlns="http://www.w3.org/2000/svg">
<path fill-rule="evenodd" clip-rule="evenodd" d="M7.55078 61.3594C3.36951 61.2892 0.00158978 57.8777 0.00158978 53.6797C0.00158978 49.4816 3.36951 46.0702 7.55078 46V61.3594Z" fill="#8E2F8E"/>
<rect x="6.71875" y="0.718262" width="107.222" height="107.222" rx="14.2963" fill="#C049C0"/>
<path fill-rule="evenodd" clip-rule="evenodd" d="M66.2245 53.1658H90.4991C91.3298 53.1658 92 53.8389 92 54.6668V54.6752V55.3877C92 60.5664 89.9442 65.5338 86.2834 69.1946C82.6197 72.8555 77.6548 74.914 72.4764 74.914H46.5236C41.3448 74.914 36.3803 72.8555 32.7166 69.1946C29.0558 65.5337 27 60.566 27 55.3877V54.6752V54.6668C27 53.8389 27.6702 53.1658 28.5009 53.1658H34.2091V46.7367C34.2091 45.9088 34.8794 45.2358 35.7101 45.2358H42.4996V38.8067C42.4996 37.9788 43.1699 37.3057 44.0006 37.3057H50.486V34.5038C50.486 33.673 51.159 33 51.9869 33C52.8176 33 53.4879 33.673 53.4879 34.5038V37.3057H59.5001C60.1338 37.3057 60.6998 37.7056 60.9138 38.3026L63.7383 46.2045C63.744 46.2243 63.7524 46.2411 63.758 46.2609L66.2245 53.1658ZM65.1375 56.1706H30.0211C30.2154 60.268 31.9275 64.1569 34.8422 67.0715C37.9399 70.1692 42.1414 71.9095 46.5231 71.9095H72.476C76.8578 71.9095 81.0592 70.1691 84.157 67.0715C87.0716 64.1569 88.7838 60.2679 88.9781 56.1706H65.1937H65.1375ZM44.0003 48.2405H37.2107V53.1658H63.0338L61.2738 48.2405H44.0003ZM51.9866 40.3105H45.5012V45.2358H60.2013L58.4413 40.3105H51.9866ZM47.6048 61.9379C46.7769 61.9379 46.1038 61.2649 46.1038 60.4341C46.1038 59.6062 46.7769 58.9332 47.6048 58.9332H49.7675C50.5954 58.9332 51.2685 59.6062 51.2685 60.4341C51.2685 61.2649 50.5954 61.9379 49.7675 61.9379H47.6048ZM38.9538 61.9379C38.1259 61.9379 37.4529 61.2649 37.4529 60.4341C37.4529 59.6062 38.1259 58.9332 38.9538 58.9332H41.1166C41.9445 58.9332 42.6175 59.6062 42.6175 60.4341C42.6175 61.2649 41.9445 61.9379 41.1166 61.9379H38.9538Z" fill="white" stroke="white" stroke-width="0.5"/>
<path fill-rule="evenodd" clip-rule="evenodd" d="M113.395 63.4681C117.576 63.3979 120.944 59.9865 120.944 55.7885C120.944 51.5905 117.576 48.1791 113.395 48.1089V63.4681Z" fill="#8E2F8E"/>
</svg>
