<svg width="122" height="122" viewBox="0 0 122 122" fill="none" xmlns="http://www.w3.org/2000/svg">
<rect x="7.71875" y="5.71826" width="107.222" height="107.222" rx="14.2963" fill="#804FBF"/>
<path d="M42.3745 57.9972C42.0278 56.228 41.0349 54.6513 39.5891 53.5743C38.1434 52.4973 36.3485 51.9972 34.5541 52.1713C32.7597 52.3455 31.0945 53.1815 29.8828 54.5164C28.6712 55.8514 28 57.5896 28 59.3924C28 61.1952 28.6712 62.9334 29.8828 64.2683C31.0945 65.6032 32.7597 66.4392 34.5541 66.6134C36.3485 66.7876 38.1434 66.2874 39.5891 65.2104C41.0349 64.1334 42.0278 62.5567 42.3745 60.7876H51.3037L72.9988 81.9944H63.5813C63.2113 81.9944 62.8564 82.1414 62.5948 82.403C62.3331 82.6647 62.1861 83.0195 62.1861 83.3896C62.1861 83.7596 62.3331 84.1145 62.5948 84.3761C62.8564 84.6378 63.2113 84.7847 63.5813 84.7847H76.417C76.7871 84.7847 77.1419 84.6378 77.4036 84.3761C77.6652 84.1145 77.8122 83.7596 77.8122 83.3896V70.5539C77.8122 70.1838 77.6652 69.829 77.4036 69.5673C77.1419 69.3057 76.7871 69.1587 76.417 69.1587C76.047 69.1587 75.6921 69.3057 75.4305 69.5673C75.1688 69.829 75.0218 70.1838 75.0218 70.5539V80.0411L55.28 60.7876H88.2761L81.5792 67.4844C81.4193 67.6044 81.287 67.7573 81.1913 67.9328C81.0957 68.1083 81.0388 68.3023 81.0246 68.5017C81.0105 68.7011 81.0393 68.9012 81.1092 69.0885C81.1791 69.2757 81.2884 69.4458 81.4298 69.5871C81.5711 69.7285 81.7412 69.8378 81.9285 69.9077C82.1157 69.9776 82.3158 70.0064 82.5152 69.9923C82.7146 69.9781 82.9086 69.9213 83.0841 69.8256C83.2596 69.7299 83.4125 69.5976 83.5325 69.4377L92.6012 60.369C92.8568 60.1082 93 59.7576 93 59.3924C93 59.0272 92.8568 58.6765 92.6012 58.4157L83.5325 49.347C83.2638 49.1455 82.9315 49.0477 82.5965 49.0715C82.2615 49.0953 81.9463 49.2392 81.7088 49.4766C81.4713 49.7141 81.3275 50.0293 81.3037 50.3643C81.2799 50.6993 81.3777 51.0316 81.5792 51.3003L88.2761 57.9972H55.2102L74.9521 38.7436V48.2309C74.9521 48.6009 75.0991 48.9558 75.3607 49.2174C75.6224 49.4791 75.9772 49.6261 76.3473 49.6261C76.7173 49.6261 77.0722 49.4791 77.3338 49.2174C77.5955 48.9558 77.7424 48.6009 77.7424 48.2309V35.3952C77.7424 35.0252 77.5955 34.6703 77.3338 34.4086C77.0722 34.147 76.7173 34 76.3473 34H63.5116C63.1415 34 62.7867 34.147 62.525 34.4086C62.2634 34.6703 62.1164 35.0252 62.1164 35.3952C62.1164 35.7652 62.2634 36.1201 62.525 36.3817C62.7867 36.6434 63.1415 36.7904 63.5116 36.7904H72.9291L51.2339 57.9972H42.3745ZM35.2591 63.857C34.3761 63.857 33.5129 63.5951 32.7787 63.1045C32.0445 62.614 31.4722 61.9167 31.1343 61.1009C30.7964 60.2851 30.708 59.3874 30.8803 58.5214C31.0525 57.6553 31.4777 56.8598 32.1021 56.2354C32.7265 55.611 33.522 55.1858 34.3881 55.0136C35.2541 54.8413 36.1518 54.9297 36.9676 55.2676C37.7834 55.6055 38.4807 56.1778 38.9712 56.912C39.4618 57.6462 39.7237 58.5094 39.7237 59.3924C39.7237 60.5765 39.2533 61.712 38.416 62.5493C37.5787 63.3866 36.4431 63.857 35.2591 63.857Z" fill="white" stroke="white" stroke-width="0.5"/>
<path fill-rule="evenodd" clip-rule="evenodd" d="M114.395 68.4681C118.576 68.3979 121.944 64.9865 121.944 60.7885C121.944 56.5905 118.576 53.1791 114.395 53.1089V68.4681Z" fill="#613599"/>
<rect x="7.71875" y="5.71826" width="107.222" height="107.222" rx="14.2963" fill="#804FBF"/>
<path d="M42.3745 57.9972C42.0278 56.228 41.0349 54.6513 39.5891 53.5743C38.1434 52.4973 36.3485 51.9972 34.5541 52.1713C32.7597 52.3455 31.0945 53.1815 29.8828 54.5164C28.6712 55.8514 28 57.5896 28 59.3924C28 61.1952 28.6712 62.9334 29.8828 64.2683C31.0945 65.6032 32.7597 66.4392 34.5541 66.6134C36.3485 66.7876 38.1434 66.2874 39.5891 65.2104C41.0349 64.1334 42.0278 62.5567 42.3745 60.7876H51.3037L72.9988 81.9944H63.5813C63.2113 81.9944 62.8564 82.1414 62.5948 82.403C62.3331 82.6647 62.1861 83.0195 62.1861 83.3896C62.1861 83.7596 62.3331 84.1145 62.5948 84.3761C62.8564 84.6378 63.2113 84.7847 63.5813 84.7847H76.417C76.7871 84.7847 77.1419 84.6378 77.4036 84.3761C77.6652 84.1145 77.8122 83.7596 77.8122 83.3896V70.5539C77.8122 70.1838 77.6652 69.829 77.4036 69.5673C77.1419 69.3057 76.7871 69.1587 76.417 69.1587C76.047 69.1587 75.6921 69.3057 75.4305 69.5673C75.1688 69.829 75.0218 70.1838 75.0218 70.5539V80.0411L55.28 60.7876H88.2761L81.5792 67.4844C81.4193 67.6044 81.287 67.7573 81.1913 67.9328C81.0957 68.1083 81.0388 68.3023 81.0246 68.5017C81.0105 68.7011 81.0393 68.9012 81.1092 69.0885C81.1791 69.2757 81.2884 69.4458 81.4298 69.5871C81.5711 69.7285 81.7412 69.8378 81.9285 69.9077C82.1157 69.9776 82.3158 70.0064 82.5152 69.9923C82.7146 69.9781 82.9086 69.9213 83.0841 69.8256C83.2596 69.7299 83.4125 69.5976 83.5325 69.4377L92.6012 60.369C92.8568 60.1082 93 59.7576 93 59.3924C93 59.0272 92.8568 58.6765 92.6012 58.4157L83.5325 49.347C83.2638 49.1455 82.9315 49.0477 82.5965 49.0715C82.2615 49.0953 81.9463 49.2392 81.7088 49.4766C81.4713 49.7141 81.3275 50.0293 81.3037 50.3643C81.2799 50.6993 81.3777 51.0316 81.5792 51.3003L88.2761 57.9972H55.2102L74.9521 38.7436V48.2309C74.9521 48.6009 75.0991 48.9558 75.3607 49.2174C75.6224 49.4791 75.9772 49.6261 76.3473 49.6261C76.7173 49.6261 77.0722 49.4791 77.3338 49.2174C77.5955 48.9558 77.7424 48.6009 77.7424 48.2309V35.3952C77.7424 35.0252 77.5955 34.6703 77.3338 34.4086C77.0722 34.147 76.7173 34 76.3473 34H63.5116C63.1415 34 62.7867 34.147 62.525 34.4086C62.2634 34.6703 62.1164 35.0252 62.1164 35.3952C62.1164 35.7652 62.2634 36.1201 62.525 36.3817C62.7867 36.6434 63.1415 36.7904 63.5116 36.7904H72.9291L51.2339 57.9972H42.3745ZM35.2591 63.857C34.3761 63.857 33.5129 63.5951 32.7787 63.1045C32.0445 62.614 31.4722 61.9167 31.1343 61.1009C30.7964 60.2851 30.708 59.3874 30.8803 58.5214C31.0525 57.6553 31.4777 56.8598 32.1021 56.2354C32.7265 55.611 33.522 55.1858 34.3881 55.0136C35.2541 54.8413 36.1518 54.9297 36.9676 55.2676C37.7834 55.6055 38.4807 56.1778 38.9712 56.912C39.4618 57.6462 39.7237 58.5094 39.7237 59.3924C39.7237 60.5765 39.2533 61.712 38.416 62.5493C37.5787 63.3866 36.4431 63.857 35.2591 63.857Z" fill="white" stroke="white" stroke-width="0.5"/>
<path fill-rule="evenodd" clip-rule="evenodd" d="M114.395 68.4681C118.576 68.3979 121.944 64.9865 121.944 60.7885C121.944 56.5905 118.576 53.1791 114.395 53.1089V68.4681Z" fill="#613599"/>
<path fill-rule="evenodd" clip-rule="evenodd" d="M7.55078 68.3594C3.36951 68.2892 0.00158978 64.8777 0.00158978 60.6797C0.00158978 56.4816 3.36951 53.0702 7.55078 53V68.3594Z" fill="#613599"/>
</svg>
