<svg width="122" height="108" viewBox="0 0 122 108" fill="none" xmlns="http://www.w3.org/2000/svg">
<path fill-rule="evenodd" clip-rule="evenodd" d="M7.55078 62.3594C3.36951 62.2892 0.00158978 58.8777 0.00158978 54.6797C0.00158978 50.4816 3.36951 47.0702 7.55078 47V62.3594Z" fill="#039194"/>
<rect x="7" width="107.222" height="107.222" rx="14.2963" fill="#06BABD"/>
<path d="M79.4408 41.2355C79.4402 41.2262 79.4402 41.2169 79.4408 41.2076C79.4322 41.1762 79.4217 41.1453 79.4094 41.1152C79.3955 41.0818 79.3798 41.0492 79.3623 41.0175L79.3501 40.9983C79.3361 40.974 79.3203 40.9507 79.303 40.9285L79.2873 40.9059C79.2655 40.8785 79.2422 40.8523 79.2176 40.8274C79.1938 40.804 79.1688 40.7818 79.1426 40.7611L79.1182 40.7437C79.0954 40.7264 79.0715 40.7106 79.0467 40.6966L79.0327 40.6879L63.482 31.8817C63.3494 31.8052 63.1991 31.7649 63.046 31.7649C62.8929 31.7649 62.7425 31.8052 62.6099 31.8817L47.0732 40.6791H47.0593H47.0488C47.0222 40.6944 46.9965 40.7113 46.9721 40.7297L46.9511 40.7454C46.8952 40.7891 46.8448 40.8395 46.8011 40.8954L46.7854 40.9146L46.7366 40.9878L46.7261 41.0053C46.7087 41.037 46.693 41.0696 46.679 41.103C46.6651 41.1344 46.6564 41.1657 46.6459 41.1971C46.6465 41.2064 46.6465 41.2158 46.6459 41.225L46.6302 41.307C46.6311 41.3157 46.6311 41.3245 46.6302 41.3332C46.6285 41.3669 46.6285 41.4006 46.6302 41.4343V58.9978C46.63 59.1496 46.6691 59.299 46.7436 59.4313C46.8182 59.5637 46.9257 59.6745 47.0558 59.753L62.6065 69.1713C62.7441 69.2562 62.9026 69.3011 63.0643 69.3011C63.226 69.3011 63.3845 69.2562 63.5221 69.1713L79.0728 59.753C79.2029 59.6745 79.3104 59.5637 79.3849 59.4313C79.4595 59.299 79.4986 59.1496 79.4984 58.9978V41.4448C79.5001 41.4111 79.5001 41.3773 79.4984 41.3436C79.4992 41.3349 79.4992 41.3262 79.4984 41.3175C79.4814 41.2886 79.4622 41.2612 79.4408 41.2355ZM63.0338 33.6538L76.7566 41.4256L63.0338 48.826L49.3092 41.4256L63.0338 33.6538ZM48.3656 42.9256L62.1443 50.3573V66.8568L48.3656 58.5111V42.9256ZM63.918 66.8568V50.3573L77.6967 42.9256V58.5111L63.918 66.8568Z" fill="white" stroke="white" stroke-width="1.5"/>
<path d="M51.2375 76.4663C46.2661 74.1934 42.0513 70.5418 39.0933 65.945C36.1353 61.3482 34.5583 55.9991 34.5496 50.5328C34.5496 49.8509 34.5776 49.1672 34.6246 48.487L37.1693 51.881C37.2524 51.99 37.3595 52.0781 37.4824 52.1387C37.6053 52.1992 37.7405 52.2304 37.8774 52.2299C38.0661 52.2299 38.2497 52.1687 38.4007 52.0555C38.5875 51.9144 38.7108 51.705 38.7435 51.4732C38.7762 51.2414 38.7156 51.0061 38.5751 50.8189L34.5636 45.4626C34.4856 45.3587 34.3857 45.2732 34.2709 45.2124C34.1561 45.1515 34.0292 45.1168 33.8994 45.1106C33.7697 45.1044 33.6401 45.127 33.52 45.1767C33.4 45.2264 33.2924 45.302 33.2049 45.3981L28.5115 50.559C28.3537 50.7322 28.2713 50.961 28.2822 51.195C28.2932 51.4291 28.3967 51.6492 28.5699 51.8069C28.7431 51.9647 28.9719 52.0471 29.2059 52.0362C29.44 52.0252 29.6601 51.9217 29.8178 51.7485L32.8648 48.4067C32.816 49.1131 32.7898 49.8247 32.7898 50.5328C32.798 56.3371 34.4714 62.0172 37.6115 66.8988C40.7516 71.7804 45.2265 75.6585 50.505 78.0727C50.718 78.1698 50.9609 78.1784 51.1802 78.0964C51.3995 78.0145 51.5773 77.8488 51.6744 77.6358C51.7716 77.4228 51.7801 77.1799 51.6982 76.9606C51.6162 76.7413 51.4505 76.5635 51.2375 76.4663Z" fill="white" stroke="white" stroke-width="1.5"/>
<path d="M93.2812 50.5313C93.2815 48.6459 93.1063 46.7646 92.758 44.9117C92.7367 44.7977 92.6932 44.6891 92.6299 44.592C92.5666 44.4949 92.4848 44.4112 92.3892 44.3456C92.2935 44.2801 92.1859 44.2341 92.0725 44.2102C91.9591 44.1862 91.842 44.1849 91.7281 44.2062C91.6141 44.2275 91.5055 44.271 91.4084 44.3343C91.3113 44.3976 91.2275 44.4794 91.162 44.575C91.0965 44.6707 91.0505 44.7783 91.0266 44.8917C91.0026 45.0051 91.0013 45.1222 91.0226 45.2361C91.3493 46.9822 91.5134 48.7549 91.5127 50.5313C91.5127 65.9233 79.2392 78.5002 63.9659 78.9955L67.5361 75.5456C67.6876 75.3802 67.7703 75.1632 67.7676 74.9389C67.7648 74.7146 67.6767 74.4998 67.5213 74.3381C67.3658 74.1764 67.1546 74.08 66.9305 74.0684C66.7065 74.0569 66.4865 74.1311 66.3152 74.2759L61.0933 79.3234C61.0046 79.4093 60.9349 79.5128 60.8886 79.6273C60.8424 79.7418 60.8206 79.8646 60.8247 79.988C60.8288 80.1114 60.8587 80.2326 60.9125 80.3437C60.9662 80.4548 61.0427 80.5535 61.1369 80.6333L66.4687 85.1401C66.5573 85.2152 66.6598 85.272 66.7703 85.3073C66.8809 85.3427 66.9974 85.3559 67.1131 85.3462C67.2287 85.3365 67.3414 85.304 67.4445 85.2507C67.5476 85.1974 67.6392 85.1242 67.714 85.0355C67.8651 84.8564 67.939 84.6247 67.9193 84.3912C67.8997 84.1577 67.7882 83.9415 67.6093 83.7902L64.0321 80.7676C80.2508 80.2321 93.2812 66.8756 93.2812 50.5313Z" fill="white" stroke="white" stroke-width="1.5"/>
<path d="M37.0567 36.7849C37.2602 36.9003 37.501 36.9303 37.7265 36.8685C37.9521 36.8068 38.1439 36.6582 38.2602 36.4553C40.7543 32.0858 44.358 28.4525 48.7069 25.9227C53.0559 23.393 57.9957 22.0566 63.0269 22.0487C67.0769 22.0353 71.0825 22.8922 74.7726 24.5613C78.4627 26.2305 81.7511 28.673 84.4152 31.7234L79.6676 30.5601C79.5551 30.5325 79.4382 30.5273 79.3236 30.5449C79.209 30.5625 79.099 30.6025 78.9999 30.6626C78.9008 30.7227 78.8145 30.8017 78.7459 30.8951C78.6773 30.9886 78.6278 31.0946 78.6002 31.2072C78.5726 31.3197 78.5675 31.4367 78.5851 31.5512C78.6026 31.6658 78.6426 31.7758 78.7027 31.8749C78.7628 31.974 78.8418 32.0603 78.9353 32.1289C79.0287 32.1975 79.1347 32.247 79.2473 32.2746L86.3267 34.01C86.3958 34.0273 86.4666 34.0361 86.5378 34.0362C86.7617 34.0343 86.9764 33.9472 87.1384 33.7927C87.3004 33.6382 87.3974 33.4277 87.4098 33.2042L87.8145 26.2277C87.7961 26.0158 87.7021 25.8176 87.5495 25.6695C87.3969 25.5214 87.196 25.4332 86.9837 25.4211C86.7714 25.409 86.5619 25.4739 86.3935 25.6038C86.2251 25.7336 86.1091 25.9198 86.0669 26.1283L85.807 30.6177C82.9766 27.3594 79.477 24.7495 75.5468 22.9659C71.6166 21.1823 67.3481 20.2668 63.0321 20.2819C57.6892 20.2896 52.4431 21.7083 47.8246 24.3946C43.2061 27.0809 39.379 30.9394 36.7306 35.5797C36.6728 35.6802 36.6354 35.7912 36.6206 35.9062C36.6057 36.0212 36.6136 36.138 36.6439 36.2499C36.6742 36.3618 36.7263 36.4667 36.7971 36.5585C36.8679 36.6503 36.9562 36.7272 37.0567 36.7849Z" fill="white" stroke="white" stroke-width="1.5"/>
<path fill-rule="evenodd" clip-rule="evenodd" d="M113.676 62.7498C117.857 62.6796 121.225 59.2682 121.225 55.0702C121.225 50.8722 117.857 47.4608 113.676 47.3906V62.7498Z" fill="#039194"/>
</svg>
