<svg width="35" height="35" viewBox="0 0 35 35" fill="none" xmlns="http://www.w3.org/2000/svg">
<rect width="35" height="35" rx="6" fill="#4AB94C"/>
<path d="M17.1667 24.2417C17.1667 24.6583 17.0083 25.075 16.6833 25.3917L14.5417 27.4917C14.4583 27.5667 14.3583 27.6083 14.25 27.6083C14.1417 27.6083 14.0333 27.5667 13.95 27.4833C13.7917 27.3167 13.7917 27.0583 13.95 26.8917L16.0917 24.8C16.1417 24.75 16.175 24.7 16.2083 24.65H11.75C10.1417 24.65 8.83333 23.3417 8.83333 21.7333V19.2333C8.83333 19 9.01667 18.8167 9.25 18.8167C9.48333 18.8167 9.66667 19 9.66667 19.2333V21.7333C9.66667 22.8833 10.6 23.8167 11.75 23.8167H16.2167C16.1833 23.7583 16.1417 23.7083 16.0917 23.6583L13.95 21.5667C13.7833 21.4083 13.7833 21.1417 13.95 20.975C14.1167 20.8083 14.375 20.8083 14.5417 20.975L16.6833 23.0667C17 23.3833 17.1667 23.8083 17.1667 24.225V24.2417ZM19.3167 12.9167L21.4583 15.0083C21.5417 15.0833 21.6417 15.125 21.75 15.125C21.8583 15.125 21.9667 15.0833 22.05 15C22.2083 14.8333 22.2083 14.575 22.05 14.4083L19.9083 12.3167C19.8583 12.2667 19.8167 12.2167 19.7833 12.1583H24.25C25.4 12.1583 26.3333 13.0917 26.3333 14.2417V16.7417C26.3333 16.975 26.5167 17.1583 26.75 17.1583C26.9833 17.1583 27.1667 16.975 27.1667 16.7417V14.2417C27.1667 12.6333 25.8583 11.325 24.25 11.325H19.7833C19.8167 11.2667 19.8583 11.2167 19.9 11.175L22.0417 9.08333C22.2083 8.925 22.2083 8.65833 22.0417 8.49167C21.8833 8.325 21.6167 8.325 21.45 8.49167L19.3083 10.5917C18.9917 10.9083 18.8333 11.325 18.825 11.7417C18.825 12.1583 18.9917 12.575 19.3083 12.9L19.3167 12.9167ZM28 21.75V25.0833C28 26.6917 26.6917 28 25.0833 28H21.75C20.1417 28 18.8333 26.6917 18.8333 25.0833V21.75C18.8333 20.1417 20.1417 18.8333 21.75 18.8333H25.0833C26.6917 18.8333 28 20.1417 28 21.75ZM27.1667 21.75C27.1667 20.6 26.2333 19.6667 25.0833 19.6667H21.75C20.6 19.6667 19.6667 20.6 19.6667 21.75V25.0833C19.6667 26.2333 20.6 27.1667 21.75 27.1667H25.0833C26.2333 27.1667 27.1667 26.2333 27.1667 25.0833V21.75ZM17.1667 10.9167V14.25C17.1667 15.8583 15.8583 17.1667 14.25 17.1667H10.9167C9.30833 17.1667 8 15.8583 8 14.25V10.9167C8 9.30833 9.30833 8 10.9167 8H14.25C15.8583 8 17.1667 9.30833 17.1667 10.9167ZM16.3333 10.9167C16.3333 9.76667 15.4 8.83333 14.25 8.83333H10.9167C9.76667 8.83333 8.83333 9.76667 8.83333 10.9167V14.25C8.83333 15.4 9.76667 16.3333 10.9167 16.3333H14.25C15.4 16.3333 16.3333 15.4 16.3333 14.25V10.9167Z" fill="white" stroke="white" stroke-width="0.5"/>
</svg>
