<svg width="100" height="100" viewBox="0 0 100 100" fill="none" xmlns="http://www.w3.org/2000/svg">
<rect width="100" height="100" rx="10" fill="#5A9FEE"/>
<path d="M82.5 17H17.8125C16.2568 17 15 18.1927 15 19.669V81.0561C15 82.5324 16.2568 83.7251 17.8125 83.7251H49.4531C49.8398 83.7251 50.1562 83.4249 50.1562 83.0579V78.3871C50.1562 78.0201 49.8398 77.7199 49.4531 77.7199H21.3281V23.0053H78.9844V49.6953C78.9844 50.0623 79.3008 50.3626 79.6875 50.3626H84.6094C84.9961 50.3626 85.3125 50.0623 85.3125 49.6953V19.669C85.3125 18.1927 84.0557 17 82.5 17ZM62.5752 57.6523L67.1631 53.2985C67.256 53.2098 67.3209 53.0982 67.3503 52.9763C67.3797 52.8545 67.3725 52.7272 67.3294 52.609C67.2864 52.4908 67.2093 52.3865 67.1068 52.3078C67.0044 52.2292 66.8808 52.1794 66.75 52.1641L50.9824 50.4126C50.5342 50.3626 50.1475 50.7212 50.2002 51.1549L52.0459 66.118C52.1162 66.6685 52.8281 66.9021 53.2412 66.51L57.8467 62.1396L80.3643 83.5083C80.6367 83.7668 81.085 83.7668 81.3574 83.5083L85.084 79.9718C85.3564 79.7133 85.3564 79.2879 85.084 79.0293L62.5752 57.6523Z" fill="#FFF8F8"/>
</svg>
