<svg width="100" height="100" viewBox="0 0 100 100" fill="none" xmlns="http://www.w3.org/2000/svg">
<path d="M0 10C0 4.47716 4.47715 0 10 0H90C95.5228 0 100 4.47715 100 10V90C100 95.5228 95.5228 100 90 100H10C4.47716 100 0 95.5228 0 90V10Z" fill="#905AEE"/>
<path d="M16.6667 23.3333H43.3334V43.3333H33.3334V76.6666H26.6667V43.3333H16.6667V23.3333ZM36.6667 36.6666V29.9999H23.3334V36.6666H36.6667ZM56.6667 23.3333H83.3334V43.3333H73.3334V76.6666H66.6667V43.3333H56.6667V23.3333ZM76.6667 36.6666V29.9999H63.3334V36.6666H76.6667ZM52.12 50.2866L64.6167 63.3333L52.1167 76.3799L47.3034 71.7666L52.19 66.6666H36.6667V59.9999H52.19L47.3034 54.8999L52.12 50.2866Z" fill="#FEFEFE"/>
</svg>
