<svg width="100" height="100" viewBox="0 0 100 100" fill="none" xmlns="http://www.w3.org/2000/svg">
<rect width="100" height="100" rx="8" fill="#AF7009" fill-opacity="0.89"/>
<g clip-path="url(#clip0_33_24)">
<path d="M50.08 55.9999L71.44 71.6399C73.2 72.9599 76.4 73.9999 78.6 73.9999H91L38.56 35.5199C39.3906 32.3413 39.0769 28.9718 37.6737 26.0011C36.2706 23.0305 33.8674 20.648 30.8847 19.2705C27.9021 17.893 24.53 17.6083 21.3587 18.4663C18.1873 19.3243 15.4188 21.2703 13.5375 23.9636C11.6562 26.657 10.782 29.9262 11.068 33.1991C11.3539 36.472 12.7818 39.54 15.1017 41.8663C17.4216 44.1926 20.4857 45.6289 23.7578 45.9239C27.0299 46.2189 30.3015 45.3538 33 43.4799L41.92 49.9999L33 56.5199C30.3086 54.634 27.0395 53.7549 23.7652 54.0368C20.491 54.3187 17.4202 55.7434 15.0907 58.0616C12.7612 60.3797 11.3214 63.4435 11.0236 66.7164C10.7257 69.9893 11.5888 73.2626 13.4615 75.9632C15.3343 78.6638 18.0974 80.6194 21.267 81.4877C24.4367 82.356 27.8107 82.0816 30.7983 80.7125C33.786 79.3434 36.1967 76.9669 37.6085 73.9991C39.0202 71.0314 39.3429 67.6616 38.52 64.4799L50.12 55.9999H50.08ZM25 37.9999C24.2121 37.9999 23.4319 37.8447 22.7039 37.5432C21.976 37.2416 21.3145 36.7997 20.7574 36.2425C20.2002 35.6854 19.7583 35.0239 19.4568 34.296C19.1552 33.568 19 32.7878 19 31.9999C19 31.212 19.1552 30.4317 19.4568 29.7038C19.7583 28.9758 20.2002 28.3144 20.7574 27.7573C21.3145 27.2001 21.976 26.7581 22.7039 26.4566C23.4319 26.1551 24.2121 25.9999 25 25.9999C26.5913 25.9999 28.1175 26.632 29.2427 27.7573C30.3679 28.8825 31 30.4086 31 31.9999C31 33.5912 30.3679 35.1173 29.2427 36.2425C28.1175 37.3678 26.5913 37.9999 25 37.9999ZM25 73.9999C23.4087 73.9999 21.8826 73.3678 20.7574 72.2425C19.6322 71.1173 19 69.5912 19 67.9999C19 66.4086 19.6322 64.8825 20.7574 63.7573C21.8826 62.632 23.4087 61.9999 25 61.9999C26.5913 61.9999 28.1175 62.632 29.2427 63.7573C30.3679 64.8825 31 66.4086 31 67.9999C31 69.5912 30.3679 71.1173 29.2427 72.2425C28.1175 73.3678 26.5913 73.9999 25 73.9999ZM71.4 28.3599C73.5402 26.932 76.0298 26.1159 78.6 25.9999H91L61 47.9999L52.8 41.9999L71.4 28.3599Z" fill="white"/>
</g>
<defs>
<clipPath id="clip0_33_24">
<rect width="80" height="80" fill="white" transform="translate(11 10)"/>
</clipPath>
</defs>
</svg>
