<svg width="35" height="35" viewBox="0 0 35 35" fill="none" xmlns="http://www.w3.org/2000/svg">
<rect width="35" height="35" rx="6" fill="#396CCE"/>
<path d="M25.9752 26.4438C26.4707 25.7943 26.8055 25.0368 26.9522 24.2331C27.0989 23.4295 27.0534 22.6025 26.8194 21.8198C26.5854 21.0372 26.1696 20.3209 25.6058 19.7297C25.0421 19.1385 24.3464 18.689 23.5757 18.4181V12.6723L18.0276 7H8V26.5541H17.823C18.6694 27.6065 19.8936 28.2862 21.2343 28.4481C22.575 28.61 23.9259 28.2412 24.9984 27.4206L27.0255 29.45L28 28.4755L25.9752 26.4438ZM18.3907 9.33969L21.4475 12.4723H18.3907V9.33969ZM9.37899 25.1751V8.37899H17.0117V13.8513H22.1967V18.1285C22.0841 18.1285 21.9669 18.117 21.8543 18.117C21.012 18.1173 20.1826 18.3229 19.4377 18.716C18.6929 19.1092 18.0551 19.678 17.5797 20.3733C17.1043 21.0685 16.8056 21.8691 16.7094 22.7059C16.6132 23.5426 16.7225 24.3902 17.0278 25.1751H9.37899ZM21.8566 27.1057C21.1037 27.1062 20.3676 26.8833 19.7414 26.4654C19.1152 26.0475 18.6271 25.4532 18.3386 24.7578C18.0502 24.0624 17.9745 23.297 18.1211 22.5586C18.2677 21.8201 18.63 21.1418 19.1622 20.6093C19.6944 20.0767 20.3726 19.714 21.1109 19.567C21.8493 19.4199 22.6147 19.4952 23.3103 19.7832C24.0058 20.0712 24.6004 20.559 25.0187 21.1849C25.437 21.8109 25.6603 22.5468 25.6603 23.2997C25.6591 24.3083 25.258 25.2754 24.545 25.9888C23.832 26.7022 22.8652 27.1039 21.8566 27.1057Z" fill="white"/>
<path d="M14.8699 14.7086H10.8594V16.0876H14.8699V14.7086Z" fill="white"/>
<path d="M17.6279 17.6964H10.8594V19.0754H17.6279V17.6964Z" fill="white"/>
</svg>
