<svg width="35" height="35" viewBox="0 0 35 35" fill="none" xmlns="http://www.w3.org/2000/svg">
<rect width="35" height="35" rx="6" fill="#614EA7"/>
<path d="M17.1 28.75H12.9C8.99 28.75 7.25 27.01 7.25 23.1V18.9C7.25 14.99 8.99 13.25 12.9 13.25H17.1C21.01 13.25 22.75 14.99 22.75 18.9V23.1C22.75 27.01 21.01 28.75 17.1 28.75ZM12.9 14.75C9.8 14.75 8.75 15.8 8.75 18.9V23.1C8.75 26.2 9.8 27.25 12.9 27.25H17.1C20.2 27.25 21.25 26.2 21.25 23.1V18.9C21.25 15.8 20.2 14.75 17.1 14.75H12.9Z" fill="white"/>
<path d="M23.1 22.75H22C21.59 22.75 21.25 22.41 21.25 22V18.9C21.25 15.8 20.2 14.75 17.1 14.75H14C13.59 14.75 13.25 14.41 13.25 14V12.9C13.25 8.99 14.99 7.25 18.9 7.25H23.1C27.01 7.25 28.75 8.99 28.75 12.9V17.1C28.75 21.01 27.01 22.75 23.1 22.75ZM22.75 21.25H23.1C26.2 21.25 27.25 20.2 27.25 17.1V12.9C27.25 9.8 26.2 8.75 23.1 8.75H18.9C15.8 8.75 14.75 9.8 14.75 12.9V13.25H17.1C21.01 13.25 22.75 14.99 22.75 18.9V21.25Z" fill="white"/>
<path d="M18 21H12" stroke="white" stroke-width="1.5" stroke-miterlimit="10" stroke-linecap="round" stroke-linejoin="round"/>
</svg>
