<svg width="35" height="35" viewBox="0 0 35 35" fill="none" xmlns="http://www.w3.org/2000/svg">
<rect width="35" height="35" rx="6" fill="#39C5A3"/>
<path d="M8 14.8604V21.1374H8.64393V18.3209H11.4605V17.6769H8.64393V14.8604H8Z" fill="white" stroke="white" stroke-width="0.5"/>
<path d="M17.676 14.8604V17.6769H14.8594V18.3209H17.676V21.1374H18.3199V18.3209H21.1365V17.6769H18.3199V14.8604H17.676Z" fill="white" stroke="white" stroke-width="0.5"/>
<path d="M14.8594 8V8.64392H17.676V11.4605H18.3199V8.64392H21.1365V8H14.8594Z" fill="white" stroke="white" stroke-width="0.5"/>
<path d="M8 8V11.4592L8.64194 11.4591V8.64184H11.46L11.46 8H8Z" fill="white" stroke="white" stroke-width="0.5"/>
<path d="M27.3596 14.8604V17.6769H24.543V18.3209H27.3596V21.1374H27.9989V14.8604H27.3596Z" fill="white" stroke="white" stroke-width="0.5"/>
<path d="M28.001 8V11.4592L27.3591 11.4591V8.64184H24.541L24.541 8H28.001Z" fill="white" stroke="white" stroke-width="0.5"/>
<path d="M8 27.9997V24.5405L8.64194 24.5406V27.3578H11.46L11.46 27.9997H8Z" fill="white" stroke="white" stroke-width="0.5"/>
<path d="M17.676 24.5421V27.3587H14.8594V27.998H21.1365V27.3587H18.3199V24.5421H17.676Z" fill="white" stroke="white" stroke-width="0.5"/>
<path d="M27.9991 27.9997V24.5405L27.3571 24.5406V27.3578H24.5391L24.5391 27.9997H27.9991Z" fill="white" stroke="white" stroke-width="0.5"/>
</svg>
