<svg width="35" height="35" viewBox="0 0 35 35" fill="none" xmlns="http://www.w3.org/2000/svg">
<rect width="35" height="35" rx="6" fill="#00ADF0"/>
<path d="M28 27.5833C28 27.8133 27.8133 28 27.5833 28H25.5C25.0408 28 24.6667 27.6258 24.6667 27.1667V21.75C24.6667 21.52 24.8533 21.3333 25.0833 21.3333C25.3133 21.3333 25.5 21.52 25.5 21.75V27.1667H27.5833C27.8133 27.1667 28 27.3533 28 27.5833ZM17.4783 24.2742C17.22 24.1767 16.4875 23.8858 16.2092 23.7158C15.9383 23.5233 15.8117 23.2425 15.8525 22.9258C15.8967 22.5933 16.1158 22.3233 16.425 22.2217C16.8925 22.0683 17.3592 22.2142 17.8983 22.6825C18.0717 22.8333 18.3342 22.8142 18.4867 22.6408C18.6375 22.4675 18.6183 22.2042 18.445 22.0525C17.6825 21.3925 16.9158 21.1817 16.165 21.43C15.5492 21.6333 15.1133 22.1642 15.0267 22.8183C14.9467 23.4375 15.2083 24.0267 15.76 24.4158C16.17 24.67 17.0825 25.0167 17.1758 25.0517C18.0525 25.4058 18.02 26.055 17.9892 26.2442C17.9025 26.7783 17.4317 27.165 16.8708 27.165C16.4333 27.165 15.7475 26.8583 15.4033 26.5092C15.2417 26.345 14.9783 26.3433 14.8142 26.505C14.65 26.6667 14.6483 26.93 14.81 27.0942C15.2483 27.5383 16.1392 27.9983 16.8708 27.9983C17.8425 27.9983 18.6592 27.3167 18.8125 26.3775C18.9217 25.7008 18.6408 24.745 17.48 24.275L17.4783 24.2742ZM23.8333 23.41V25.91C23.8333 26.335 23.7042 26.73 23.4842 27.06L23.7117 27.2883C24.0983 27.6658 23.4967 28.265 23.1208 27.8758L22.8933 27.6475C22.5642 27.8642 22.1725 27.9925 21.7492 27.9925C20.6008 27.9925 19.6658 27.0575 19.6658 25.9092V23.4092C19.6658 22.2608 20.6008 21.3258 21.7492 21.3258C22.8975 21.3258 23.8325 22.2608 23.8325 23.4092L23.8333 23.41ZM22.8742 26.4467C22.9525 26.2833 23 26.1025 23 25.91V23.41C23 22.7208 22.4392 22.16 21.75 22.16C21.0608 22.16 20.5 22.7208 20.5 23.41V25.91C20.5 26.5992 21.0608 27.16 21.75 27.16C21.9417 27.16 22.1217 27.1133 22.2842 27.0358L21.8708 26.6208C21.7083 26.4575 21.7092 26.1942 21.8725 26.0317C22.0342 25.8683 22.2992 25.8708 22.4617 26.0333L22.8733 26.4475L22.8742 26.4467ZM12.9917 27.4233C12.9467 27.6508 12.7208 27.795 12.5008 27.7492C9.76667 27.195 8 25.8217 8 24.2492V11.75C8 9.6475 11.1108 8 15.0833 8C19.0558 8 22.1667 9.6475 22.1667 11.75V19.6667C22.1667 19.8967 21.98 20.0833 21.75 20.0833C21.52 20.0833 21.3333 19.8967 21.3333 19.6667V17.7075C20.1508 18.8833 17.8225 19.6667 15.0833 19.6667C12.3442 19.6667 10.0158 18.8833 8.83333 17.7075V20.0833C8.83333 21.2242 10.3733 22.3017 12.6658 22.7658C13.1992 22.8658 13.025 23.6983 12.5008 23.5825C10.8775 23.2542 9.6075 22.6317 8.83333 21.855V24.25C8.83333 25.3908 10.3733 26.4683 12.6658 26.9325C12.8917 26.9783 13.0375 27.1983 12.9917 27.4233ZM8.83333 11.75C8.83333 13.3308 11.6958 14.6667 15.0833 14.6667C18.4708 14.6667 21.3333 13.3308 21.3333 11.75C21.3333 10.1692 18.4708 8.83333 15.0833 8.83333C11.6958 8.83333 8.83333 10.1692 8.83333 11.75ZM8.83333 13.5408V15.9167C8.83333 17.4975 11.6958 18.8333 15.0833 18.8333C18.4708 18.8333 21.3333 17.4975 21.3333 15.9167V13.5408C20.1508 14.7167 17.8225 15.5 15.0833 15.5C12.3442 15.5 10.0158 14.7167 8.83333 13.5408Z" fill="white" stroke="white" stroke-width="0.5"/>
</svg>
