<svg width="35" height="35" viewBox="0 0 35 35" fill="none" xmlns="http://www.w3.org/2000/svg">
<rect width="35" height="35" rx="6" fill="#E8294A"/>
<path d="M22.882 12.8023C21.9563 9.73986 19.1091 7.50293 15.7485 7.50293C11.6398 7.50293 8.29688 10.8457 8.29688 14.9545C8.29688 18.357 10.5903 21.2324 13.7119 22.1207C14.6377 25.1835 17.4846 27.4202 20.8455 27.4202C24.9542 27.4202 28.2969 24.0775 28.2969 19.9688C28.2971 16.5659 26.0036 13.6908 22.882 12.8023ZM9.30307 14.9545C9.30307 11.4004 12.1945 8.50893 15.7487 8.50893C18.4615 8.50893 20.7865 10.1942 21.736 12.5721C21.4438 12.5371 21.1471 12.5172 20.8457 12.5172C16.7368 12.5172 13.3941 15.8599 13.3941 19.9688C13.3941 20.3121 13.4194 20.6495 13.4647 20.9805C11.0348 20.0563 9.30307 17.7045 9.30307 14.9545ZM22.1941 14.9545C22.1941 18.5085 19.3027 21.4 15.7485 21.4C15.3336 21.4 14.9284 21.3591 14.5353 21.2839C14.4469 20.8591 14.4 20.4193 14.4 19.9688C14.4 16.4146 17.2917 13.5232 20.8457 13.5232C21.2605 13.5232 21.6656 13.5641 22.0587 13.6393C22.1472 14.064 22.1941 14.5039 22.1941 14.9545ZM20.8457 26.4142C18.1329 26.4142 15.8078 24.7288 14.8582 22.351C15.1503 22.386 15.4471 22.406 15.7485 22.406C19.8572 22.406 23.2001 19.0632 23.2001 14.9545C23.2001 14.6111 23.1747 14.2737 23.1295 13.9425C25.5592 14.8666 27.2911 17.2186 27.2911 19.9688C27.2911 23.5228 24.3996 26.4142 20.8457 26.4142Z" fill="white" stroke="white" stroke-width="0.5"/>
</svg>
