<svg width="40" height="40" viewBox="0 0 40 40" fill="none" xmlns="http://www.w3.org/2000/svg">
<path d="M0.5 6.10206C0.5 3.06449 2.96244 0.602051 6 0.602051H34C37.0376 0.602051 39.5 3.06448 39.5 6.10205V33.8975C39.5 36.9351 37.0376 39.3975 34 39.3975H6C2.96243 39.3975 0.5 36.9351 0.5 33.8975V6.10206Z" fill="#F7A01F"/>
<path d="M0.5 6.10206C0.5 3.06449 2.96244 0.602051 6 0.602051H34C37.0376 0.602051 39.5 3.06448 39.5 6.10205V33.8975C39.5 36.9351 37.0376 39.3975 34 39.3975H6C2.96243 39.3975 0.5 36.9351 0.5 33.8975V6.10206Z" stroke="#F7A01F"/>
<path d="M19.9999 16.5002V21.1669M19.9999 25.8336H20.0116M18.0049 10.5036L8.12324 27.0002C7.9195 27.3531 7.8117 27.7531 7.81056 28.1605C7.80942 28.5679 7.91497 28.9686 8.11673 29.3225C8.31849 29.6765 8.60942 29.9714 8.96056 30.1781C9.31171 30.3847 9.71083 30.4958 10.1182 30.5002H29.8816C30.289 30.4958 30.6881 30.3847 31.0392 30.1781C31.3904 29.9714 31.6813 29.6765 31.8831 29.3225C32.0848 28.9686 32.1904 28.5679 32.1893 28.1605C32.1881 27.7531 32.0803 27.3531 31.8766 27.0002L21.9949 10.5036C21.7869 10.1607 21.4941 9.87721 21.1446 9.68047C20.7952 9.48373 20.4009 9.38037 19.9999 9.38037C19.5989 9.38037 19.2046 9.48373 18.8552 9.68047C18.5057 9.87721 18.2129 10.1607 18.0049 10.5036Z" stroke="white" stroke-width="2.5" stroke-linecap="round" stroke-linejoin="round"/>
</svg>
