<svg width="40" height="40" viewBox="0 0 40 40" fill="none" xmlns="http://www.w3.org/2000/svg">
<rect x="0.5" y="0.5" width="39" height="39" rx="5.5" fill="#0FBAEF"/>
<rect x="0.5" y="0.5" width="39" height="39" rx="5.5" stroke="#0FBAEF"/>
<path d="M33.1051 23.8186H29.7694C29.276 23.8186 28.875 23.4174 28.875 22.9246V17.0752C28.875 16.5821 29.2763 16.1812 29.7694 16.1812H33.1051C33.5985 16.1812 33.9995 16.5824 33.9995 17.0752V22.9246C33.9995 23.4177 33.5982 23.8186 33.1051 23.8186ZM29.7694 16.6012C29.5075 16.6012 29.295 16.814 29.295 17.0752V22.9246C29.295 23.1861 29.5078 23.3986 29.7694 23.3986H33.1051C33.367 23.3986 33.5795 23.1858 33.5795 22.9246V17.0752C33.5795 16.8137 33.3667 16.6012 33.1051 16.6012H29.7694Z" fill="white" stroke="white" stroke-width="0.5"/>
<path d="M33.7898 22.0647H29.085C28.9691 22.0647 28.875 21.9706 28.875 21.8547V18.1441C28.875 18.0282 28.9691 17.9341 29.085 17.9341H33.7898C33.9057 17.9341 33.9998 18.0282 33.9998 18.1441V21.8547C33.9998 21.9706 33.9057 22.0647 33.7898 22.0647ZM29.295 21.6447H33.5798V18.3541H29.295V21.6447Z" fill="white" stroke="white" stroke-width="0.5"/>
<path d="M10.6507 16.5859H6.21001C6.09408 16.5859 6 16.4919 6 16.3759V12.6519C6 12.536 6.09408 12.4419 6.21001 12.4419H10.6507C10.7666 12.4419 10.8607 12.536 10.8607 12.6519V16.3759C10.8607 16.4919 10.7666 16.5859 10.6507 16.5859ZM6.42002 16.1659H10.4407V12.8619H6.42002V16.1659Z" fill="white" stroke="white" stroke-width="0.5"/>
<path d="M10.6507 22.0716H6.21001C6.09408 22.0716 6 21.9775 6 21.8616V18.1373C6 18.0213 6.09408 17.9272 6.21001 17.9272H10.6507C10.7666 17.9272 10.8607 18.0213 10.8607 18.1373V21.8616C10.8607 21.9775 10.7666 22.0716 10.6507 22.0716ZM6.42002 21.6516H10.4407V18.3473H6.42002V21.6516Z" fill="white" stroke="white" stroke-width="0.5"/>
<path d="M10.6507 27.5586H6.21001C6.09408 27.5586 6 27.4645 6 27.3486V23.6246C6 23.5086 6.09408 23.4146 6.21001 23.4146H10.6507C10.7666 23.4146 10.8607 23.5086 10.8607 23.6246V27.3486C10.8607 27.4645 10.7666 27.5586 10.6507 27.5586ZM6.42002 27.1386H10.4407V23.8346H6.42002V27.1386Z" fill="white" stroke="white" stroke-width="0.5"/>
<path d="M22.1183 24.8261H17.3643C16.9028 24.8261 16.5273 24.4506 16.5273 23.9891V16.0103C16.5273 15.5488 16.9028 15.1733 17.3643 15.1733H22.1186C22.5801 15.1733 22.9556 15.5488 22.9556 16.0103V23.9891C22.9556 24.4506 22.5801 24.8261 22.1183 24.8261ZM17.3643 15.5934C17.1344 15.5934 16.9474 15.7804 16.9474 16.0103V23.9891C16.9474 24.219 17.1344 24.4061 17.3643 24.4061H22.1186C22.3485 24.4061 22.5356 24.219 22.5356 23.9891V16.0103C22.5356 15.7804 22.3485 15.5934 22.1186 15.5934H17.3643Z" fill="white" stroke="white" stroke-width="0.5"/>
<path d="M16.7364 21.211H10.6495C10.5335 21.211 10.4395 21.1169 10.4395 21.001C10.4395 20.8851 10.5335 20.791 10.6495 20.791H16.7361C16.852 20.791 16.9461 20.8851 16.9461 21.001C16.9461 21.1169 16.8523 21.211 16.7364 21.211Z" fill="white" stroke="white" stroke-width="0.5"/>
<path d="M16.7364 19.1723C15.0459 19.1723 14.5072 18.3297 13.9858 17.5152C13.4227 16.6345 12.8403 15.7242 10.6495 15.7242C10.5335 15.7242 10.4395 15.6301 10.4395 15.5142C10.4395 15.3983 10.5335 15.3042 10.6495 15.3042C13.0702 15.3042 13.7447 16.3587 14.3395 17.2889C14.8418 18.0744 15.2755 18.7526 16.7361 18.7526C16.852 18.7526 16.9461 18.8466 16.9461 18.9626C16.9461 19.0785 16.8523 19.1723 16.7364 19.1723Z" fill="white" stroke="white" stroke-width="0.5"/>
<path d="M10.6495 26.6973C10.5335 26.6973 10.4395 26.6032 10.4395 26.4873C10.4395 26.3713 10.5335 26.2772 10.6495 26.2772C12.1103 26.2772 12.544 25.5988 13.0464 24.8133C13.6414 23.8831 14.3157 22.8286 16.7361 22.8286C16.852 22.8286 16.9461 22.9227 16.9461 23.0386C16.9461 23.1545 16.852 23.2486 16.7361 23.2486C14.5456 23.2486 13.9631 24.1592 13.4 25.0396C12.8792 25.8547 12.3402 26.6973 10.6495 26.6973Z" fill="white" stroke="white" stroke-width="0.5"/>
<path d="M27.8391 21.211H22.7452C22.6292 21.211 22.5352 21.1169 22.5352 21.001C22.5352 20.8851 22.6292 20.791 22.7452 20.791H27.8391C27.9551 20.791 28.0492 20.8851 28.0492 21.001C28.0492 21.1169 27.9551 21.211 27.8391 21.211Z" fill="white" stroke="white" stroke-width="0.5"/>
<path d="M27.8392 21.2104C27.7958 21.2104 27.7516 21.197 27.7141 21.169L26.5649 20.3135C26.4719 20.2443 26.4529 20.1127 26.522 20.0198C26.5915 19.9268 26.7225 19.9072 26.8161 19.9767L27.9652 20.8321C28.0582 20.9013 28.0772 21.0329 28.0081 21.1258C27.9666 21.1813 27.9036 21.2104 27.8392 21.2104Z" fill="white" stroke="white" stroke-width="0.5"/>
<path d="M26.6909 22.0666C26.6268 22.0666 26.5635 22.0375 26.522 21.9821C26.4529 21.8888 26.4719 21.7572 26.5649 21.6881L27.7141 20.8326C27.8073 20.7632 27.9389 20.7828 28.0081 20.8757C28.0772 20.9687 28.0582 21.1003 27.9652 21.1695L26.8161 22.0249C26.7783 22.0532 26.7343 22.0666 26.6909 22.0666Z" fill="white" stroke="white" stroke-width="0.5"/>
</svg>
