<svg width="40" height="40" viewBox="0 0 40 40" fill="none" xmlns="http://www.w3.org/2000/svg">
<rect x="0.5" y="0.5" width="39" height="39" rx="5.5" fill="#C049C0"/>
<rect x="0.5" y="0.5" width="39" height="39" rx="5.5" stroke="#C049C0"/>
<path d="M20.0206 10.9102C16.7106 10.9102 14.0206 13.6002 14.0206 16.9102V19.8002C14.0206 20.4102 13.7606 21.3402 13.4506 21.8602L12.3006 23.7702C11.5906 24.9502 12.0806 26.2602 13.3806 26.7002C17.6906 28.1402 22.3406 28.1402 26.6506 26.7002C27.8606 26.3002 28.3906 24.8702 27.7306 23.7702L26.5806 21.8602C26.2806 21.3402 26.0206 20.4102 26.0206 19.8002V16.9102C26.0206 13.6102 23.3206 10.9102 20.0206 10.9102Z" stroke="white" stroke-width="1.5" stroke-miterlimit="10" stroke-linecap="round"/>
<path d="M21.8699 11.1999C21.5599 11.1099 21.2399 11.0399 20.9099 10.9999C19.9499 10.8799 19.0299 10.9499 18.1699 11.1999C18.4599 10.4599 19.1799 9.93994 20.0199 9.93994C20.8599 9.93994 21.5799 10.4599 21.8699 11.1999Z" stroke="white" stroke-width="1.5" stroke-miterlimit="10" stroke-linecap="round" stroke-linejoin="round"/>
<path d="M23.0195 27.0601C23.0195 28.7101 21.6695 30.0601 20.0195 30.0601C19.1995 30.0601 18.4395 29.7201 17.8995 29.1801C17.3595 28.6401 17.0195 27.8801 17.0195 27.0601" stroke="white" stroke-width="1.5" stroke-miterlimit="10"/>
</svg>
