<svg width="40" height="41" viewBox="0 0 40 41" fill="none" xmlns="http://www.w3.org/2000/svg">
<rect x="0.5" y="0.5" width="39.0004" height="39" rx="5.5" fill="#07A260"/>
<rect x="0.5" y="0.5" width="39.0004" height="39" rx="5.5" stroke="#07A260"/>
<path d="M28.749 9.06926C28.5415 8.90512 28.2373 8.93409 28.0684 9.1465C27.8994 9.35409 27.9332 9.65822 28.1456 9.82719C31.2546 12.3134 33.0359 16.021 33.0359 19.9989C33.0359 23.9768 31.2546 27.6844 28.1456 30.1755C27.938 30.3396 27.9042 30.6437 28.0684 30.8562C28.1649 30.9768 28.3049 31.0396 28.4449 31.0396C28.5511 31.0396 28.6573 31.0058 28.7442 30.9334C32.0849 28.2541 34.0015 24.2713 34.0015 19.9989C34.0015 15.7265 32.0849 11.7437 28.749 9.06926Z" fill="white" stroke="white" stroke-width="0.5"/>
<path d="M26.9291 11.3383C26.7215 11.1741 26.4174 11.2079 26.2484 11.4155C26.0843 11.6231 26.1181 11.9272 26.3256 12.0962C28.7491 14.0224 30.1394 16.9045 30.1394 19.9989C30.1394 23.0934 28.7491 25.9755 26.3305 27.9065C26.1229 28.0707 26.0891 28.3748 26.2532 28.5872C26.3498 28.7079 26.4898 28.7707 26.6298 28.7707C26.736 28.7707 26.8422 28.7369 26.9291 28.6645C29.5843 26.5451 31.105 23.3879 31.105 19.9989C31.105 16.61 29.5843 13.4527 26.9291 11.3383Z" fill="white" stroke="white" stroke-width="0.5"/>
<path d="M25.1283 13.5926C24.9207 13.4285 24.6166 13.4574 24.4476 13.665C24.2787 13.8726 24.3125 14.1767 24.5201 14.3457C26.2532 15.736 27.2428 17.7974 27.2428 19.9988C27.2428 22.2002 26.2532 24.2616 24.5201 25.6519C24.3125 25.8209 24.2787 26.125 24.4476 26.3326C24.5442 26.4533 24.6842 26.5112 24.8242 26.5112C24.9304 26.5112 25.0366 26.4774 25.1283 26.405C27.0835 24.8312 28.2083 22.4947 28.2083 19.9988C28.2083 17.5029 27.0835 15.1664 25.1283 13.5926Z" fill="white" stroke="white" stroke-width="0.5"/>
<path d="M23.3197 15.8519C23.1122 15.683 22.808 15.7168 22.639 15.9244C22.4701 16.1319 22.5039 16.4361 22.7115 16.605C23.7494 17.4402 24.3432 18.6761 24.3432 19.9988C24.3432 21.3216 23.7494 22.5575 22.7115 23.3926C22.5039 23.5616 22.4701 23.8657 22.639 24.0733C22.7356 24.194 22.8756 24.2519 23.0156 24.2519C23.1218 24.2519 23.228 24.2181 23.3197 24.1457C24.5846 23.1223 25.3087 21.6112 25.3087 19.9988C25.3087 18.3864 24.5846 16.8754 23.3197 15.8519Z" fill="white" stroke="white" stroke-width="0.5"/>
<path d="M6.96552 19.9988C6.96552 16.0209 8.7469 12.3133 11.8559 9.82226C12.0634 9.65329 12.0972 9.35398 11.9331 9.14157C11.7641 8.93398 11.46 8.90019 11.2524 9.06432C7.91655 11.7436 6 15.7264 6 19.9988C6 24.2712 7.91655 28.254 11.2524 30.9285C11.3393 31.0009 11.4503 31.0347 11.5517 31.0347C11.6917 31.0347 11.8317 30.9719 11.9283 30.8512C12.0972 30.6436 12.0634 30.3395 11.851 30.1705C8.7469 27.6843 6.96552 23.9767 6.96552 19.9988Z" fill="white" stroke="white" stroke-width="0.5"/>
<path d="M9.86395 19.9989C9.86395 16.9044 11.2543 14.0223 13.6729 12.0913C13.8805 11.9272 13.9143 11.623 13.7502 11.4106C13.586 11.203 13.2819 11.1692 13.0695 11.3334C10.4191 13.4527 8.89844 16.6099 8.89844 19.9989C8.89844 23.3878 10.4191 26.5451 13.0743 28.6596C13.1612 28.732 13.2674 28.7658 13.3736 28.7658C13.5136 28.7658 13.6536 28.703 13.7502 28.5823C13.9143 28.3747 13.8805 28.0706 13.6729 27.9016C11.2543 25.9754 9.86395 23.0934 9.86395 19.9989Z" fill="white" stroke="white" stroke-width="0.5"/>
<path d="M12.7585 19.9989C12.7585 17.7975 13.7481 15.7361 15.4812 14.3458C15.6888 14.1768 15.7226 13.8727 15.5537 13.6651C15.3847 13.4575 15.0806 13.4237 14.873 13.5927C12.9178 15.1665 11.793 17.503 11.793 19.9989C11.793 22.4947 12.9178 24.8313 14.873 26.4051C14.9599 26.4775 15.0709 26.5113 15.1771 26.5113C15.3171 26.5113 15.4571 26.4485 15.5537 26.3327C15.7226 26.1251 15.6888 25.8209 15.4812 25.652C13.7481 24.2616 12.7585 22.2002 12.7585 19.9989Z" fill="white" stroke="white" stroke-width="0.5"/>
<path d="M17.2886 16.605C17.4962 16.4361 17.53 16.1319 17.3611 15.9244C17.1921 15.7168 16.888 15.683 16.6804 15.8519C15.4155 16.8754 14.6914 18.3864 14.6914 19.9988C14.6914 21.6112 15.4155 23.1223 16.6804 24.1457C16.7721 24.2181 16.8783 24.2519 16.9845 24.2519C17.1245 24.2519 17.2645 24.1892 17.3611 24.0733C17.53 23.8657 17.4962 23.5616 17.2886 23.3926C16.2507 22.5575 15.6569 21.3216 15.6569 19.9988C15.6569 18.6761 16.2507 17.4402 17.2886 16.605Z" fill="white" stroke="white" stroke-width="0.5"/>
<path d="M19.9997 17.585C18.6673 17.585 17.5859 18.6663 17.5859 19.9988C17.5859 21.3312 18.6673 22.4125 19.9997 22.4125C21.3321 22.4125 22.4135 21.3312 22.4135 19.9988C22.4135 18.6663 21.3321 17.585 19.9997 17.585ZM19.9997 21.447C19.2032 21.447 18.5515 20.7953 18.5515 19.9988C18.5515 19.2022 19.2032 18.5505 19.9997 18.5505C20.7963 18.5505 21.448 19.2022 21.448 19.9988C21.448 20.7953 20.7963 21.447 19.9997 21.447Z" fill="white" stroke="white" stroke-width="0.5"/>
</svg>
