<svg width="40" height="40" viewBox="0 0 40 40" fill="none" xmlns="http://www.w3.org/2000/svg">
<rect x="0.5" y="0.5" width="39" height="39" rx="5.5" fill="#F3C603"/>
<rect x="0.5" y="0.5" width="39" height="39" rx="5.5" stroke="#F3C603"/>
<path d="M15 16H12C10.9 16 10 15.1 10 14V12C10 10.9 10.9 10 12 10H15C16.1 10 17 10.9 17 12V14C17 15.1 16.1 16 15 16Z" stroke="white" stroke-width="1.5" stroke-linecap="round" stroke-linejoin="round"/>
<path d="M28.8 15H25.2C24.54 15 24 14.46 24 13.8V12.2C24 11.54 24.54 11 25.2 11H28.8C29.46 11 30 11.54 30 12.2V13.8C30 14.46 29.46 15 28.8 15Z" stroke="white" stroke-width="1.5" stroke-linecap="round" stroke-linejoin="round"/>
<path d="M28.8 22.5H25.2C24.54 22.5 24 21.96 24 21.3V19.7C24 19.04 24.54 18.5 25.2 18.5H28.8C29.46 18.5 30 19.04 30 19.7V21.3C30 21.96 29.46 22.5 28.8 22.5Z" stroke="white" stroke-width="1.5" stroke-linecap="round" stroke-linejoin="round"/>
<path d="M17 13H24" stroke="white" stroke-width="1.5" stroke-miterlimit="10" stroke-linecap="round" stroke-linejoin="round"/>
<path d="M20.5 13V26C20.5 27.1 21.4 28 22.5 28H24" stroke="white" stroke-width="1.5" stroke-miterlimit="10" stroke-linecap="round" stroke-linejoin="round"/>
<path d="M20.5 20.5H24" stroke="white" stroke-width="1.5" stroke-miterlimit="10" stroke-linecap="round" stroke-linejoin="round"/>
<path d="M28.8 30H25.2C24.54 30 24 29.46 24 28.8V27.2C24 26.54 24.54 26 25.2 26H28.8C29.46 26 30 26.54 30 27.2V28.8C30 29.46 29.46 30 28.8 30Z" stroke="white" stroke-width="1.5" stroke-linecap="round" stroke-linejoin="round"/>
</svg>
