<svg width="40" height="41" viewBox="0 0 40 41" fill="none" xmlns="http://www.w3.org/2000/svg">
<rect x="0.5" y="0.5" width="39" height="39" rx="5.5" fill="#8237E3"/>
<rect x="0.5" y="0.5" width="39" height="39" rx="5.5" stroke="#8237E3"/>
<path d="M18.8446 26.2179V13.7825C18.8446 13.3004 18.226 12.9958 16.7764 12.7638C15.6074 12.5768 14.0611 12.4738 12.4223 12.4738C10.7835 12.4738 9.23723 12.5768 8.06826 12.7638C6.61856 12.9958 6 13.3005 6 13.7825V26.2179C6 26.7007 6.6175 27.0055 8.06486 27.2371C9.23165 27.4238 10.7791 27.5266 12.4224 27.5266C14.0656 27.5266 15.6131 27.4238 16.7798 27.2371C18.2271 27.0055 18.8446 26.7007 18.8446 26.2179ZM6.66932 20.6827C6.99985 20.8128 7.45951 20.9226 8.06486 21.0194C9.2316 21.2061 10.7791 21.3089 12.4224 21.3089C14.0656 21.3089 15.6131 21.2061 16.7798 21.0194C17.3851 20.9226 17.8448 20.8128 18.1753 20.6827V23.045C18.0871 23.1104 17.712 23.3233 16.4012 23.5083C15.3045 23.6631 13.8914 23.7484 12.4224 23.7484C10.9533 23.7484 9.54026 23.6631 8.44347 23.5083C7.13271 23.3233 6.75762 23.1104 6.66932 23.045V20.6827ZM6.66932 17.5739C6.99985 17.704 7.45951 17.8138 8.06486 17.9106C9.2316 18.0973 10.7791 18.2001 12.4224 18.2001C14.0656 18.2001 15.6131 18.0973 16.7798 17.9106C17.3851 17.8138 17.8448 17.704 18.1753 17.5739V19.9362C18.0871 20.0016 17.712 20.2145 16.4012 20.3995C15.3045 20.5543 13.8914 20.6396 12.4224 20.6396C10.9533 20.6396 9.54021 20.5543 8.44347 20.3995C7.13271 20.2145 6.75762 20.0017 6.66932 19.9362V17.5739ZM6.66932 14.4638C7.00052 14.5941 7.46124 14.704 8.06826 14.8011C9.23723 14.9882 10.7835 15.0912 12.4223 15.0912C14.0611 15.0912 15.6074 14.9882 16.7764 14.8011C17.3834 14.704 17.8441 14.5941 18.1753 14.4638V16.8273C18.087 16.8927 17.7119 17.1056 16.4011 17.2906C15.3044 17.4455 13.8914 17.5307 12.4223 17.5307C10.9533 17.5307 9.54015 17.4455 8.44341 17.2906C7.13266 17.1056 6.75756 16.8927 6.66927 16.8273L6.66932 14.4638ZM8.44709 13.3837C9.54562 13.2285 10.9574 13.1431 12.4224 13.1431C13.8873 13.1431 15.299 13.2286 16.3976 13.3837C17.4136 13.5272 17.8689 13.6871 18.0639 13.7825C17.8689 13.8778 17.4136 14.0378 16.3976 14.1812C15.2991 14.3364 13.8873 14.4218 12.4224 14.4218C10.9574 14.4218 9.54567 14.3364 8.44709 14.1812C7.43107 14.0378 6.97581 13.8778 6.78076 13.7825C6.97581 13.6872 7.43107 13.5272 8.44709 13.3837ZM12.4224 26.8572C10.9533 26.8572 9.54026 26.772 8.44347 26.6172C7.1335 26.4323 6.75789 26.2194 6.66932 26.1538V23.7915C6.99985 23.9216 7.45951 24.0314 8.06486 24.1282C9.23165 24.3149 10.7791 24.4177 12.4224 24.4177C14.0656 24.4177 15.6131 24.3149 16.7798 24.1282C17.3851 24.0314 17.8448 23.9216 18.1753 23.7915V26.1538C18.0868 26.2194 17.7112 26.4322 16.4012 26.6172C15.3045 26.772 13.8914 26.8572 12.4224 26.8572ZM33.6622 15.2393L31.2344 12.8115C31.0135 12.5907 30.7315 12.4739 30.4192 12.4739H22.6209C22.4361 12.4739 22.2862 12.6237 22.2862 12.8085V27.192C22.2862 27.3767 22.4361 27.5266 22.6209 27.5266H33.6653C33.8501 27.5266 34 27.3767 34 27.192V16.0546C34 15.7422 33.8831 15.4603 33.6622 15.2393ZM32.8954 15.419H31.2438C31.1395 15.419 31.0547 15.3343 31.0547 15.23V13.5783L32.8954 15.419ZM22.9555 26.8573V13.1432H30.1342C30.2881 13.2282 30.3854 13.3881 30.3854 13.5658V15.23C30.3854 15.7033 30.7704 16.0884 31.2438 16.0884H32.908C33.0857 16.0884 33.2456 16.1857 33.3306 16.3396V26.8573H22.9555ZM13.2132 8.94581C13.1843 8.76325 13.309 8.5919 13.4915 8.56307C13.6737 8.53457 13.8455 8.65884 13.8743 8.84145L14.0215 9.77393C15.2591 7.51569 17.6438 6.08496 20.2483 6.08496C23.0796 6.08496 25.6368 7.7634 26.7632 10.3609C26.8368 10.5305 26.7589 10.7276 26.5893 10.8011C26.546 10.8199 26.5008 10.8288 26.4564 10.8288C26.3271 10.8288 26.2039 10.7534 26.1491 10.6273C25.1289 8.27453 22.8127 6.75434 20.2483 6.75434C17.8754 6.75434 15.7035 8.06509 14.5883 10.1313L15.5009 9.75937C15.672 9.68965 15.8673 9.77181 15.9371 9.94299C16.0069 10.1142 15.9246 10.3094 15.7535 10.3792L13.9704 11.106C13.9298 11.1226 13.8869 11.1308 13.8441 11.1308C13.7871 11.1308 13.7304 11.1163 13.6797 11.0876C13.5906 11.0374 13.5295 10.9493 13.5135 10.8483L13.2132 8.94581ZM26.7867 31.0546C26.8156 31.2372 26.6909 31.4085 26.5083 31.4373C26.4907 31.4401 26.4731 31.4415 26.4557 31.4415C26.294 31.4415 26.1517 31.3238 26.1256 31.159L25.9785 30.2268C24.7409 32.4845 22.3548 33.9155 19.7517 33.9155C16.9204 33.9155 14.3632 32.237 13.2367 29.6395C13.1632 29.4699 13.2411 29.2728 13.4106 29.1993C13.5802 29.1258 13.7772 29.2037 13.8508 29.3732C14.8711 31.7259 17.1873 33.2462 19.7517 33.2462C22.1234 33.2462 24.2966 31.935 25.4118 29.8692L24.4991 30.2412C24.328 30.311 24.1327 30.2287 24.0629 30.0576C23.9931 29.8865 24.0754 29.6911 24.2465 29.6214L26.0296 28.8945C26.1242 28.8559 26.2314 28.8627 26.3203 28.9129C26.4094 28.9631 26.4705 29.0513 26.4865 29.1523L26.7867 31.0546Z" fill="white" stroke="white" stroke-width="0.5"/>
</svg>
