<svg width="40" height="41" viewBox="0 0 40 41" fill="none" xmlns="http://www.w3.org/2000/svg">
<rect x="0.5" y="1" width="39" height="39" rx="5.5" fill="#FF7396"/>
<rect x="0.5" y="1" width="39" height="39" rx="5.5" stroke="#FF7396"/>
<path d="M30.7068 15.3729C30.4571 15.0295 29.9889 14.9047 29.6143 15.1544C29.2397 15.4041 29.1461 15.8723 29.3958 16.2469L31.7057 19.743L29.1148 19.7742C29.0212 19.743 28.9588 19.7118 28.8651 19.7118H28.0847C20.2497 19.7118 12.8829 16.6527 7.32664 11.0964C7.01449 10.7843 6.51505 10.7843 6.23411 11.0964C5.92196 11.4086 5.92196 11.908 6.23411 12.1889C10.4169 16.3718 15.5987 19.2124 21.2486 20.4922C15.5987 21.772 10.4169 24.6126 6.23411 28.8266C5.92196 29.1388 5.92196 29.6382 6.23411 29.9192C6.39019 30.0752 6.57748 30.1377 6.79599 30.1377C7.01449 30.1377 7.20178 30.0752 7.35786 29.9192C12.9142 24.3629 20.2809 21.3038 28.116 21.3038L31.7369 21.2726L29.427 24.7374C29.1773 25.0808 29.2709 25.5803 29.6455 25.83C29.7704 25.9236 29.9264 25.9548 30.0825 25.9548C30.3322 25.9548 30.5819 25.83 30.738 25.6115L33.8595 20.9292C34.0468 20.6795 34.0468 20.3361 33.8595 20.0552L30.7068 15.3729Z" fill="white" stroke="white" stroke-width="0.5"/>
</svg>
