<svg width="40" height="41" viewBox="0 0 40 41" fill="none" xmlns="http://www.w3.org/2000/svg">
<rect x="0.5" y="1" width="39" height="39" rx="5.5" fill="#804FBF"/>
<rect x="0.5" y="1" width="39" height="39" rx="5.5" stroke="#804FBF"/>
<path d="M12.1921 19.899C12.0428 19.1369 11.615 18.4577 10.9922 17.9938C10.3695 17.5298 9.59626 17.3144 8.8233 17.3894C8.05034 17.4644 7.33301 17.8246 6.81107 18.3996C6.28914 18.9747 6 19.7234 6 20.5C6 21.2766 6.28914 22.0254 6.81107 22.6004C7.33301 23.1755 8.05034 23.5356 8.8233 23.6106C9.59626 23.6856 10.3695 23.4702 10.9922 23.0062C11.615 22.5423 12.0428 21.8631 12.1921 21.101H16.0385L25.3841 30.2363H21.3273C21.1679 30.2363 21.0151 30.2996 20.9024 30.4123C20.7897 30.525 20.7263 30.6779 20.7263 30.8373C20.7263 30.9967 20.7897 31.1495 20.9024 31.2622C21.0151 31.375 21.1679 31.4383 21.3273 31.4383H26.8566C27.016 31.4383 27.1688 31.375 27.2815 31.2622C27.3942 31.1495 27.4576 30.9967 27.4576 30.8373V25.308C27.4576 25.1486 27.3942 24.9958 27.2815 24.8831C27.1688 24.7704 27.016 24.707 26.8566 24.707C26.6972 24.707 26.5443 24.7704 26.4316 24.8831C26.3189 24.9958 26.2556 25.1486 26.2556 25.308V29.3949L17.7514 21.101H31.9651L29.0803 23.9858C29.0114 24.0375 28.9544 24.1034 28.9132 24.179C28.872 24.2546 28.8475 24.3381 28.8414 24.424C28.8353 24.5099 28.8477 24.5961 28.8778 24.6768C28.9079 24.7575 28.955 24.8307 29.0159 24.8916C29.0768 24.9525 29.15 24.9996 29.2307 25.0297C29.3114 25.0598 29.3976 25.0722 29.4835 25.0661C29.5694 25.06 29.6529 25.0355 29.7285 24.9943C29.8042 24.9531 29.87 24.8961 29.9217 24.8272L33.8282 20.9207C33.9383 20.8084 34 20.6573 34 20.5C34 20.3427 33.9383 20.1917 33.8282 20.0793L29.9217 16.1728C29.8059 16.086 29.6628 16.0439 29.5185 16.0541C29.3742 16.0644 29.2384 16.1263 29.1361 16.2286C29.0338 16.3309 28.9718 16.4667 28.9616 16.611C28.9513 16.7553 28.9935 16.8985 29.0803 17.0142L31.9651 19.899H17.7213L26.2255 11.6052V15.692C26.2255 15.8514 26.2888 16.0043 26.4015 16.117C26.5143 16.2297 26.6671 16.293 26.8265 16.293C26.9859 16.293 27.1388 16.2297 27.2515 16.117C27.3642 16.0043 27.4275 15.8514 27.4275 15.692V10.1628C27.4275 10.0034 27.3642 9.85051 27.2515 9.7378C27.1388 9.62509 26.9859 9.56177 26.8265 9.56177H21.2973C21.1379 9.56177 20.985 9.62509 20.8723 9.7378C20.7596 9.85051 20.6963 10.0034 20.6963 10.1628C20.6963 10.3222 20.7596 10.475 20.8723 10.5877C20.985 10.7005 21.1379 10.7638 21.2973 10.7638H25.3541L16.0085 19.899H12.1921ZM9.12698 22.4232C8.74661 22.4232 8.37477 22.3104 8.0585 22.0991C7.74223 21.8878 7.49573 21.5874 7.35017 21.236C7.20461 20.8846 7.16652 20.4979 7.24073 20.1248C7.31493 19.7518 7.4981 19.4091 7.76707 19.1401C8.03603 18.8711 8.37872 18.688 8.75178 18.6138C9.12485 18.5396 9.51154 18.5776 9.86296 18.7232C10.2144 18.8688 10.5147 19.1153 10.7261 19.4315C10.9374 19.7478 11.0502 20.1196 11.0502 20.5C11.0502 21.0101 10.8476 21.4993 10.4869 21.8599C10.1262 22.2206 9.63705 22.4232 9.12698 22.4232Z" fill="white" stroke="white" stroke-width="0.5"/>
</svg>
