<svg width="40" height="41" viewBox="0 0 40 41" fill="none" xmlns="http://www.w3.org/2000/svg">
<rect x="0.5" y="1" width="39" height="39" rx="5.5" fill="#C049C0"/>
<rect x="0.5" y="1" width="39" height="39" rx="5.5" stroke="#C049C0"/>
<path fill-rule="evenodd" clip-rule="evenodd" d="M22.8967 20.1868H33.3534C33.7113 20.1868 34 20.4767 34 20.8334V20.837V21.1439C34 23.3748 33.1144 25.5146 31.5375 27.0915C29.9592 28.6685 27.8205 29.5553 25.5898 29.5553H14.4101C12.1793 29.5553 10.0407 28.6685 8.46255 27.0915C6.88556 25.5145 6 23.3746 6 21.1439V20.837V20.8334C6 20.4767 6.28871 20.1868 6.64656 20.1868H9.10547V17.4174C9.10547 17.0607 9.39419 16.7708 9.75203 16.7708H12.6768V14.0013C12.6768 13.6447 12.9655 13.3548 13.3233 13.3548H16.117V12.1478C16.117 11.7899 16.407 11.5 16.7636 11.5C17.1214 11.5 17.4102 11.7899 17.4102 12.1478V13.3548H20.0001C20.273 13.3548 20.5168 13.527 20.609 13.7842L21.8257 17.1881C21.8282 17.1966 21.8318 17.2039 21.8342 17.2124L22.8967 20.1868ZM22.4284 21.4812H7.30138C7.38508 23.2462 8.12262 24.9214 9.37816 26.177C10.7126 27.5114 12.5225 28.261 14.41 28.261H25.5897C27.4772 28.261 29.287 27.5113 30.6215 26.177C31.877 24.9214 32.6146 23.2462 32.6982 21.4812H22.4527H22.4284ZM13.3232 18.0652H10.3985V20.1868H21.5223L20.7641 18.0652H13.3232ZM16.7634 14.6491H13.9697V16.7708H20.3021L19.5439 14.6491H16.7634ZM14.8759 23.9656C14.5193 23.9656 14.2293 23.6756 14.2293 23.3178C14.2293 22.9612 14.5193 22.6712 14.8759 22.6712H15.8075C16.1642 22.6712 16.4541 22.9611 16.4541 23.3178C16.4541 23.6756 16.1642 23.9656 15.8075 23.9656H14.8759ZM11.1493 23.9656C10.7927 23.9656 10.5028 23.6756 10.5028 23.3178C10.5028 22.9612 10.7927 22.6712 11.1493 22.6712H12.081C12.4376 22.6712 12.7275 22.9611 12.7275 23.3178C12.7275 23.6756 12.4376 23.9656 12.081 23.9656H11.1493Z" fill="white" stroke="white" stroke-width="0.5"/>
</svg>
