<svg width="40" height="41" viewBox="0 0 40 41" fill="none" xmlns="http://www.w3.org/2000/svg">
<rect x="0.5" y="1" width="39" height="39" rx="5.5" fill="#06BABD"/>
<rect x="0.5" y="1" width="39" height="39" rx="5.5" stroke="#06BABD"/>
<path d="M28.6126 15.1708C28.6124 15.1665 28.6124 15.1622 28.6126 15.158C28.6087 15.1435 28.6038 15.1292 28.5981 15.1153C28.5917 15.0999 28.5845 15.0848 28.5764 15.0702L28.5708 15.0614C28.5643 15.0501 28.557 15.0394 28.549 15.0292L28.5418 15.0187C28.5317 15.0061 28.521 14.994 28.5096 14.9825C28.4986 14.9717 28.4871 14.9614 28.475 14.9519L28.4637 14.9438C28.4532 14.9358 28.4422 14.9286 28.4307 14.9221L28.4243 14.9181L21.2471 10.8537C21.1859 10.8184 21.1165 10.7998 21.0458 10.7998C20.9752 10.7998 20.9058 10.8184 20.8446 10.8537L13.6738 14.914H13.6674H13.6625C13.6503 14.9211 13.6384 14.9289 13.6271 14.9374L13.6175 14.9446C13.5917 14.9648 13.5684 14.9881 13.5482 15.0139L13.541 15.0227L13.5185 15.0565L13.5136 15.0646C13.5056 15.0792 13.4983 15.0943 13.4919 15.1097C13.4854 15.1241 13.4814 15.1386 13.4766 15.1531C13.4769 15.1574 13.4769 15.1617 13.4766 15.166L13.4693 15.2038C13.4697 15.2079 13.4697 15.2119 13.4693 15.2159C13.4686 15.2315 13.4686 15.2471 13.4693 15.2626V23.3688C13.4693 23.4389 13.4873 23.5078 13.5217 23.5689C13.5561 23.6299 13.6058 23.6811 13.6658 23.7173L20.843 28.0642C20.9065 28.1034 20.9796 28.1241 21.0543 28.1241C21.1289 28.1241 21.2021 28.1034 21.2656 28.0642L28.4428 23.7173C28.5028 23.6811 28.5524 23.6299 28.5868 23.5689C28.6213 23.5078 28.6393 23.4389 28.6392 23.3688V15.2674C28.64 15.2519 28.64 15.2363 28.6392 15.2207C28.6396 15.2167 28.6396 15.2127 28.6392 15.2087C28.6314 15.1954 28.6225 15.1827 28.6126 15.1708ZM21.0402 11.6716L27.3738 15.2586L21.0402 18.6741L14.7058 15.2586L21.0402 11.6716ZM14.2703 15.9509L20.6296 19.3809V26.996L14.2703 23.1442V15.9509ZM21.4483 26.996V19.3809L27.8077 15.9509V23.1442L21.4483 26.996Z" fill="white" stroke="white" stroke-width="0.5"/>
<path d="M15.5951 31.4312C13.3007 30.3822 11.3554 28.6969 9.99015 26.5753C8.62492 24.4537 7.89711 21.9849 7.89309 19.462C7.89309 19.1472 7.90597 18.8317 7.9277 18.5177L9.10217 20.0842C9.1405 20.1345 9.18995 20.1752 9.24666 20.2031C9.30337 20.2311 9.36578 20.2455 9.42899 20.2452C9.51608 20.2452 9.60082 20.217 9.67049 20.1647C9.75672 20.0996 9.81362 20.003 9.82871 19.896C9.8438 19.789 9.81585 19.6804 9.75098 19.594L7.89953 17.1219C7.86355 17.0739 7.81741 17.0345 7.76443 17.0064C7.71144 16.9783 7.6529 16.9623 7.593 16.9594C7.5331 16.9566 7.4733 16.967 7.41789 16.99C7.36248 17.0129 7.31282 17.0478 7.27245 17.0921L5.10625 19.4741C5.03345 19.554 4.99539 19.6596 5.00045 19.7676C5.0055 19.8756 5.05326 19.9772 5.13322 20.05C5.21317 20.1228 5.31877 20.1609 5.42678 20.1558C5.5348 20.1508 5.63638 20.103 5.70918 20.0231L7.11548 18.4807C7.09294 18.8067 7.08087 19.1352 7.08087 19.462C7.08463 22.1409 7.85699 24.7625 9.30626 27.0155C10.7555 29.2685 12.8209 31.0584 15.257 32.1726C15.3554 32.2175 15.4675 32.2214 15.5687 32.1836C15.6699 32.1458 15.752 32.0693 15.7968 31.971C15.8416 31.8727 15.8456 31.7606 15.8077 31.6593C15.7699 31.5581 15.6935 31.4761 15.5951 31.4312Z" fill="white" stroke="white" stroke-width="0.5"/>
<path d="M34.9996 19.4614C34.9997 18.5912 34.9189 17.7229 34.7581 16.8677C34.7483 16.8151 34.7282 16.765 34.699 16.7202C34.6698 16.6753 34.632 16.6367 34.5879 16.6065C34.5437 16.5762 34.4941 16.555 34.4417 16.5439C34.3894 16.5329 34.3354 16.5323 34.2828 16.5421C34.2302 16.5519 34.18 16.572 34.1352 16.6012C34.0904 16.6304 34.0518 16.6682 34.0215 16.7123C33.9913 16.7565 33.97 16.8061 33.959 16.8585C33.948 16.9108 33.9473 16.9648 33.9572 17.0174C34.108 17.8233 34.1837 18.6415 34.1834 19.4614C34.1834 26.5653 28.5187 32.37 21.4695 32.5986L23.1173 31.0064C23.1872 30.93 23.2254 30.8299 23.2241 30.7264C23.2229 30.6228 23.1822 30.5237 23.1105 30.449C23.0387 30.3744 22.9412 30.3299 22.8378 30.3246C22.7344 30.3193 22.6329 30.3535 22.5538 30.4204L20.1437 32.75C20.1028 32.7896 20.0706 32.8374 20.0493 32.8902C20.0279 32.943 20.0179 32.9998 20.0198 33.0567C20.0217 33.1136 20.0355 33.1696 20.0603 33.2209C20.0851 33.2722 20.1204 33.3177 20.1638 33.3545L22.6247 35.4346C22.6655 35.4692 22.7128 35.4954 22.7639 35.5118C22.8149 35.5281 22.8687 35.5342 22.9221 35.5297C22.9754 35.5252 23.0274 35.5102 23.075 35.4856C23.1226 35.461 23.1649 35.4272 23.1994 35.3863C23.2692 35.3036 23.3032 35.1967 23.2942 35.0889C23.2851 34.9811 23.2337 34.8814 23.1511 34.8115L21.5001 33.4165C28.9856 33.1694 34.9996 27.0048 34.9996 19.4614Z" fill="white" stroke="white" stroke-width="0.5"/>
<path d="M9.04842 13.1168C9.14231 13.17 9.25346 13.1839 9.35755 13.1554C9.46164 13.1269 9.5502 13.0583 9.60386 12.9647C10.755 10.948 12.4182 9.27108 14.4254 8.10352C16.4326 6.93596 18.7125 6.31917 21.0346 6.31553C22.9038 6.30933 24.7525 6.70481 26.4556 7.47519C28.1588 8.24556 29.6765 9.37286 30.906 10.7808L28.7149 10.2438C28.6629 10.2311 28.609 10.2287 28.5561 10.2368C28.5032 10.2449 28.4525 10.2634 28.4067 10.2911C28.361 10.3189 28.3211 10.3553 28.2895 10.3985C28.2578 10.4416 28.235 10.4905 28.2222 10.5425C28.2095 10.5944 28.2071 10.6484 28.2152 10.7013C28.2234 10.7541 28.2418 10.8049 28.2695 10.8507C28.2973 10.8964 28.3337 10.9362 28.3769 10.9679C28.42 10.9995 28.4689 11.0224 28.5209 11.0351L31.7883 11.8361C31.8202 11.8441 31.8529 11.8481 31.8857 11.8482C31.989 11.8473 32.0881 11.8071 32.1629 11.7358C32.2377 11.6645 32.2825 11.5674 32.2882 11.4642L32.475 8.24426C32.4665 8.14648 32.4231 8.05502 32.3526 7.98665C32.2822 7.91828 32.1895 7.87758 32.0915 7.87201C31.9935 7.86643 31.8968 7.89636 31.8191 7.9563C31.7414 8.01624 31.6879 8.10219 31.6684 8.19838L31.5484 10.2704C30.2421 8.76657 28.6269 7.56202 26.813 6.73882C24.999 5.91562 23.029 5.49311 21.037 5.50008C18.571 5.50363 16.1498 6.15843 14.0182 7.39824C11.8866 8.63805 10.1202 10.4189 8.89789 12.5606C8.87123 12.607 8.85398 12.6582 8.84711 12.7112C8.84025 12.7643 8.84391 12.8182 8.85789 12.8699C8.87187 12.9215 8.89589 12.9699 8.92859 13.0123C8.96128 13.0547 9.002 13.0902 9.04842 13.1168Z" fill="white" stroke="white" stroke-width="0.5"/>
</svg>
